<?xml version="1.0" encoding="UTF-8"?>
<svg version="1.1" xmlns="http://www.w3.org/2000/svg" width="1280" height="1280">
<path d="M0 0 C422.4 0 844.8 0 1280 0 C1280 422.4 1280 844.8 1280 1280 C857.6 1280 435.2 1280 0 1280 C0 857.6 0 435.2 0 0 Z " fill="#FEFEFE" transform="translate(0,0)"/>
<path d="M0 0 C1.6925441 0.00273422 1.6925441 0.00273422 3.41928101 0.00552368 C74.44715542 0.19761436 144.15004198 16.64501919 207.40332031 49.20410156 C208.92872749 49.98715771 210.45701256 50.76461972 211.98730469 51.53808594 C224.98981247 58.11105393 237.42123988 65.25760136 249.5625 73.3125 C250.26213867 73.7765625 250.96177734 74.240625 251.68261719 74.71875 C265.8504058 84.17737796 279.53370008 94.33504305 292.5625 105.3125 C293.33811279 105.9607373 293.33811279 105.9607373 294.12939453 106.62207031 C309.83749197 119.76851105 325.52585702 133.69605859 338.8359375 149.30859375 C340.77991046 151.56483386 342.79573518 153.74613893 344.8125 155.9375 C349.91926166 161.59915596 354.5823815 167.56694265 359.23339844 173.60253906 C360.42191663 175.13163191 361.63516253 176.64143003 362.8515625 178.1484375 C381.73818085 201.83783853 396.9418288 228.34246739 410.5625 255.3125 C411.00625977 256.18922363 411.45001953 257.06594727 411.90722656 257.96923828 C419.13647301 272.37018221 425.06249736 287.17417695 430.5625 302.3125 C430.91554199 303.27430176 431.26858398 304.23610352 431.63232422 305.22705078 C444.57969824 340.87106611 452.88583513 379.46816902 455.5625 417.3125 C455.68951294 418.96523926 455.68951294 418.96523926 455.8190918 420.65136719 C456.60768361 431.79119033 456.76439838 442.89723239 456.75 454.0625 C456.74906342 455.00714111 456.74812683 455.95178223 456.74716187 456.92504883 C456.54118679 553.25238619 426.1333234 648.08385409 344.5625 755.3125 C343.78648437 756.18777344 343.01046875 757.06304688 342.2109375 757.96484375 C340.00903105 760.4273999 337.78879867 762.87198702 335.5625 765.3125 C334.68851563 766.27929688 333.81453125 767.24609375 332.9140625 768.2421875 C325.22589083 776.72302403 317.39417495 785.02397011 308.68359375 792.47265625 C306.13708942 794.68150254 303.6664984 796.96570554 301.1875 799.25 C296.14671115 803.84071842 290.94649497 808.13292464 285.5625 812.3125 C284.59957031 813.07046875 283.63664063 813.8284375 282.64453125 814.609375 C213.2579707 868.73951167 129.89151144 901.8936413 -48.484375 909.35546875 C-138.06851608 898.06193365 -220.87140117 864.21947612 -290.4375 806.3125 C-291.44296875 805.48234375 -292.4484375 804.6521875 -293.484375 803.796875 C-309.12726943 790.79605219 -324.64228649 776.77010138 -337.8046875 761.2265625 C-339.77666334 758.91491618 -341.82594408 756.68104258 -343.875 754.4375 C-403.2656983 688.38151395 -439.7420328 601.78141668 -451.4375 514.3125 C-451.60266113 513.08450684 -451.76782227 511.85651367 -451.93798828 510.59130859 C-456.6658348 473.49702573 -456.79682819 434.32220034 -451.4375 397.3125 C-451.29184601 396.28268005 -451.29184601 396.28268005 -451.14324951 395.23205566 C-444.86688742 350.93286227 -433.08659666 308.06639495 -414.4375 267.3125 C-413.95812988 266.26030273 -413.47875977 265.20810547 -412.98486328 264.12402344 C-399.97666408 235.79162517 -384.08517831 209.28275577 -365.4375 184.3125 C-364.98632812 183.70680176 -364.53515625 183.10110352 -364.0703125 182.47705078 C-355.829129 171.46071117 -346.97152264 160.98661537 -337.703125 150.82421875 C-336.44277239 149.42696577 -335.18934588 148.02304855 -333.96459961 146.59448242 C-329.06159523 140.88660336 -323.83116394 135.5571677 -318.5 130.25 C-317.21706055 128.96125977 -317.21706055 128.96125977 -315.90820312 127.64648438 C-310.91293914 122.65884093 -305.80214259 117.89806611 -300.4375 113.3125 C-299.38913682 112.38709986 -298.34218414 111.46009852 -297.296875 110.53125 C-288.19718255 102.53600956 -278.6259213 95.24081428 -268.85693359 88.08496094 C-267.34612501 86.97815263 -265.83813975 85.86746771 -264.33447266 84.75097656 C-206.28511711 41.69926229 -136.76361655 15.59117454 -65.6875 4.5625 C-63.79124878 4.26436401 -63.79124878 4.26436401 -61.85668945 3.96020508 C-41.30619774 0.91283349 -20.75774169 -0.07028689 0 0 Z " fill="#FEFEFE" transform="translate(639.4375,184.6875)"/>
<path d="M0 0 C28.63786006 -0.04565392 57.27571582 -0.08103418 85.91360512 -0.10213066 C89.29681428 -0.10463198 92.68002337 -0.10722064 96.06323242 -0.10986328 C96.73675057 -0.1103879 97.41026871 -0.11091252 98.1041965 -0.11145304 C109.00069125 -0.12014872 119.89716484 -0.13591407 130.79364704 -0.15430559 C141.97968038 -0.17302796 153.16570649 -0.18397203 164.35175568 -0.18817699 C170.63257521 -0.19078352 176.91334677 -0.1969067 183.19415092 -0.21146011 C189.10788667 -0.22505174 195.02155476 -0.22921941 200.93530464 -0.22621536 C203.10364271 -0.22676481 205.27198308 -0.23073279 207.44030762 -0.23841095 C210.40624604 -0.24839686 213.37193078 -0.24595552 216.33787537 -0.24050903 C217.61758348 -0.24924756 217.61758348 -0.24924756 218.92314428 -0.25816262 C229.83014965 -0.20422007 238.92482558 2.38074861 247.08203125 9.92578125 C254.86543113 18.36462533 256.15066097 26.82078958 256.14044189 37.94902039 C256.14489858 39.46392656 256.14489858 39.46392656 256.1494453 41.00943691 C256.15812553 44.39781983 256.15963998 47.78616739 256.16113281 51.17456055 C256.16576147 53.60239233 256.1707862 56.03022338 256.17617798 58.45805359 C256.18929958 65.0573912 256.19578339 71.65672147 256.20018864 78.25606894 C256.20295414 82.37942683 256.20719207 86.50278238 256.21169281 90.62613869 C256.22388349 102.05012076 256.23418302 113.47410097 256.2375679 124.89808941 C256.23778747 125.62886577 256.23800703 126.35964214 256.23823325 127.11256324 C256.23845153 127.84505525 256.23866981 128.57754726 256.2388947 129.33223599 C256.23933816 130.81646137 256.23978473 132.30068674 256.24023438 133.78491211 C256.2404558 134.52113396 256.24067723 135.25735581 256.24090537 136.01588742 C256.24485159 147.93958347 256.26230111 159.86321834 256.2855939 171.78689077 C256.30933381 184.03869423 256.32177096 196.29046702 256.32293582 208.54229385 C256.32385113 215.41720877 256.32956693 222.29204397 256.34775543 229.16693687 C256.36480928 235.6355997 256.36638931 242.10415176 256.35761642 248.57283211 C256.35684629 250.94393697 256.36118564 253.31504997 256.37107468 255.68613434 C256.38380634 258.92962257 256.37791033 262.17257648 256.36749268 265.4160614 C256.37554908 266.34847757 256.38360548 267.28089373 256.39190602 268.24156493 C256.30837009 279.40584368 253.14612217 287.76910373 245.30078125 295.72265625 C238.65228235 301.80341816 231.42680913 304.12660595 222.44967175 304.12304783 C220.78360938 304.1260344 220.78360938 304.1260344 219.08388919 304.12908131 C217.26142601 304.12471205 217.26142601 304.12471205 215.40214539 304.12025452 C214.10747072 304.12110894 212.81279605 304.12196337 211.47888881 304.12284368 C207.88727705 304.12507986 204.2956951 304.12107934 200.70408714 304.11606562 C196.83024654 304.11174874 192.95640763 304.11320843 189.08256531 304.1139679 C182.37151885 304.11449234 175.66048211 304.11135379 168.9494381 304.10573006 C159.24638513 304.09760437 149.54333687 304.09499874 139.84028087 304.09374207 C124.09786362 304.09155323 108.35545155 304.0848977 92.61303711 304.07543945 C77.32039414 304.06626099 62.02775259 304.05918228 46.73510742 304.05493164 C45.32124194 304.05453756 45.32124194 304.05453756 43.87881353 304.05413551 C39.15020019 304.05283048 34.42158685 304.05156677 29.69297349 304.05032361 C-9.5380213 304.03995624 -48.76901031 304.02234249 -88 304 C-87.3516061 299.22436965 -86.47403788 294.76356384 -85.11181641 290.13793945 C-84.92033429 289.48279043 -84.72885218 288.82764141 -84.53156757 288.15263939 C-83.8928164 285.97147844 -83.24718883 283.79241612 -82.6015625 281.61328125 C-82.13918703 280.0394978 -81.67724929 278.46558569 -81.2157135 276.89155579 C-80.21797138 273.49231007 -79.21716098 270.09398836 -78.21395874 266.6963501 C-76.59602791 261.21675145 -74.98473211 255.73521485 -73.37426758 250.25341797 C-71.0852851 242.46423878 -68.79330264 234.67594803 -66.49951172 226.88818359 C-63.10783657 215.37172937 -59.72626656 203.85232416 -56.34765625 192.33203125 C-55.79444717 190.44586082 -55.24123468 188.55969139 -54.6880188 186.67352295 C-53.85597607 183.83668402 -53.02393856 180.99984356 -52.19193077 178.16299438 C-49.10500525 167.63808507 -46.01549817 157.11393388 -42.92578125 146.58984375 C-42.64476437 145.63262672 -42.36374748 144.6754097 -42.07421494 143.6891861 C-38.51406542 131.56239252 -34.95346826 119.4357304 -31.39272022 107.30911255 C-28.93907199 98.95278533 -26.48575084 90.59636211 -24.03261852 82.23988342 C-22.30248251 76.34635535 -20.57192804 70.4529504 -18.841012 64.55965137 C-17.75973107 60.87782126 -16.67885014 57.1958738 -15.59806252 53.51389885 C-15.10895763 51.8479227 -14.61970164 50.1819909 -14.13025475 48.51611519 C-9.38220876 32.35511061 -4.69129788 16.1775473 0 0 Z " fill="#000000" transform="translate(721,412)"/>
<path d="M0 0 C1.11916738 -0.00199105 2.23833477 -0.0039821 3.39141631 -0.00603348 C5.23575802 -0.00166422 5.23575802 -0.00166422 7.11735916 0.00279331 C9.07646551 0.00151167 9.07646551 0.00151167 11.07514977 0.00020415 C14.70322547 -0.00203493 18.33127173 0.00197248 21.95934367 0.00698221 C25.87069368 0.01129491 29.78204199 0.0098397 33.69339371 0.00907993 C40.47102884 0.00855522 47.24865436 0.01169654 54.02628708 0.01731777 C63.82564331 0.02543987 73.62499488 0.02804872 83.42435411 0.02930576 C99.3226151 0.03149516 115.22087097 0.03815222 131.11912918 0.04760838 C146.5641159 0.05678538 162.00910123 0.06386481 177.45409012 0.06811619 C178.40589081 0.06837891 179.35769151 0.06864164 180.33833465 0.06891232 C185.11317083 0.07021734 189.88800703 0.07148106 194.66284323 0.07272422 C234.2838549 0.08309335 273.90486084 0.10070863 313.52586746 0.12304783 C312.90426962 2.63592137 312.28094644 5.14834674 311.6566658 7.66055393 C311.4834197 8.36167584 311.31017361 9.06279776 311.13167763 9.78516579 C309.33972132 16.98527487 307.27401799 24.09517238 305.16649246 31.20898533 C304.74485855 32.64139783 304.32353268 34.07390104 303.90248489 35.50648594 C303.00190752 38.56849836 302.09937889 41.62992574 301.19524002 44.6908884 C299.74112489 49.61400427 298.29154368 54.53844806 296.84276199 59.46313572 C296.33962681 61.17323638 295.83648343 62.88333462 295.33333206 64.59343052 C295.08123348 65.45026117 294.8291349 66.30709183 294.56939697 67.18988705 C293.7934716 69.82646322 293.01710586 72.46290936 292.24061966 75.09932041 C288.62834713 87.36543436 285.02927688 99.63536276 281.43992996 111.90820408 C281.19046741 112.76116377 280.94100487 113.61412346 280.68398285 114.49293041 C279.42592888 118.79470685 278.16808828 123.09654565 276.91032791 127.39840794 C267.0200659 161.22396864 257.09936214 195.04050562 247.14014053 228.84582615 C244.84843075 236.62568511 242.56104309 244.40679868 240.27786255 252.18916512 C238.5748261 257.99393346 236.86971069 263.79808822 235.16304779 269.60179138 C234.15620416 273.02608544 233.15048377 276.45070023 232.14751053 279.8761301 C231.05443628 283.60919676 229.95639893 287.34079275 228.85789871 291.07226658 C228.53290894 292.18524113 228.20791916 293.29821568 227.87308121 294.44491673 C227.57650116 295.44946903 227.27992111 296.45402134 226.97435379 297.48901463 C226.58851875 298.80351849 226.58851875 298.80351849 226.19488907 300.14457798 C225.52586746 302.12304783 225.52586746 302.12304783 224.52586746 303.12304783 C221.61310713 303.22768086 218.72384028 303.26636466 215.81041336 303.26348972 C214.42208195 303.26794641 214.42208195 303.26794641 213.00570345 303.27249312 C209.87895229 303.28122109 206.75223924 303.28269184 203.62547684 303.28418064 C201.3936543 303.28880609 199.16183256 303.29383038 196.93001175 303.29922581 C190.84701634 303.31238216 184.76403198 303.31880159 178.68102455 303.32323647 C174.88199463 303.32616329 171.08296776 303.33026745 167.28393936 303.33474064 C156.76513453 303.34685707 146.24633149 303.35723539 135.72751999 303.36061573 C135.0537038 303.3608353 134.37988762 303.36105486 133.68565276 303.36128108 C133.01021185 303.36149936 132.33477095 303.36171764 131.63886213 303.36194253 C130.27014255 303.362386 128.90142298 303.36283256 127.5327034 303.3632822 C126.85376953 303.36350363 126.17483565 303.36372506 125.47532803 303.3639532 C114.48834598 303.36789628 103.50143047 303.38533252 92.51447409 303.40864173 C81.2334841 303.43238122 69.95252626 303.44456113 58.67150736 303.44598365 C52.338147 303.44703188 46.00488029 303.45294322 39.67154312 303.47080326 C33.70933642 303.48728797 27.7472937 303.48943737 21.78507233 303.48066425 C19.59899456 303.47989397 17.41290796 303.48423535 15.22685242 303.49412251 C12.23677066 303.50685036 9.24726883 303.50096026 6.2571907 303.4905405 C4.96683293 303.50262511 4.96683293 303.50262511 3.65040731 303.51495385 C-5.86910852 303.43765155 -14.24014204 300.37615826 -21.47413254 294.12304783 C-28.75503784 285.70003974 -30.93157857 276.52414771 -30.86181259 265.62381077 C-30.86719813 264.60299408 -30.87258367 263.58217739 -30.8781324 262.53042686 C-30.89237555 259.12904696 -30.88531709 255.72805824 -30.87818527 252.32666111 C-30.88389074 249.88015525 -30.89085569 247.43365206 -30.898983 244.98715305 C-30.91505027 239.04299492 -30.91701886 233.09893449 -30.9117701 227.15476622 C-30.9077199 222.32049149 -30.90918202 217.48624793 -30.91451836 212.65197468 C-30.91526678 211.96252973 -30.9160152 211.27308478 -30.9167863 210.56274756 C-30.91831787 209.1618944 -30.91985621 207.76104125 -30.92140127 206.36018811 C-30.93511277 193.23856057 -30.92969826 180.11699273 -30.91821606 166.99536656 C-30.90828629 155.00790397 -30.92122227 143.02059578 -30.94515025 131.03315701 C-30.96957073 118.70549764 -30.97914181 106.3779101 -30.97249752 94.05022705 C-30.96901168 87.13676295 -30.97119514 80.22341754 -30.98874855 73.30997181 C-31.00505443 66.80755648 -31.00024304 60.30536294 -30.98144341 53.80295277 C-30.97776216 51.42098134 -30.98085236 49.03898802 -30.99132919 46.65703678 C-31.00457215 43.39643831 -30.99296136 40.13680969 -30.97533798 36.87625217 C-30.98494299 35.94169543 -30.994548 35.00713869 -31.00444406 34.04426205 C-30.89219793 23.89734547 -27.72458414 15.3982852 -20.69678879 8.06836033 C-14.47303585 2.62120925 -8.22387328 -0.00322758 0 0 Z " fill="#0B45FD" transform="translate(334.4741325378418,464.8769521713257)"/>
<path d="M0 0 C1.6925441 0.00273422 1.6925441 0.00273422 3.41928101 0.00552368 C74.44715542 0.19761436 144.15004198 16.64501919 207.40332031 49.20410156 C208.92872749 49.98715771 210.45701256 50.76461972 211.98730469 51.53808594 C224.98981247 58.11105393 237.42123988 65.25760136 249.5625 73.3125 C250.26213867 73.7765625 250.96177734 74.240625 251.68261719 74.71875 C265.8504058 84.17737796 279.53370008 94.33504305 292.5625 105.3125 C293.33811279 105.9607373 293.33811279 105.9607373 294.12939453 106.62207031 C309.83749197 119.76851105 325.52585702 133.69605859 338.8359375 149.30859375 C340.77991046 151.56483386 342.79573518 153.74613893 344.8125 155.9375 C349.91926166 161.59915596 354.5823815 167.56694265 359.23339844 173.60253906 C360.42191663 175.13163191 361.63516253 176.64143003 362.8515625 178.1484375 C381.73818085 201.83783853 396.9418288 228.34246739 410.5625 255.3125 C411.00625977 256.18922363 411.45001953 257.06594727 411.90722656 257.96923828 C419.13647301 272.37018221 425.06249736 287.17417695 430.5625 302.3125 C430.91554199 303.27430176 431.26858398 304.23610352 431.63232422 305.22705078 C444.57969824 340.87106611 452.88583513 379.46816902 455.5625 417.3125 C455.68951294 418.96523926 455.68951294 418.96523926 455.8190918 420.65136719 C456.60768361 431.79119033 456.76439838 442.89723239 456.75 454.0625 C456.74906342 455.00714111 456.74812683 455.95178223 456.74716187 456.92504883 C456.54118679 553.25238619 426.1333234 648.08385409 344.5625 755.3125 C343.78648437 756.18777344 343.01046875 757.06304688 342.2109375 757.96484375 C340.00903105 760.4273999 337.78879867 762.87198702 335.5625 765.3125 C334.68851563 766.27929688 333.81453125 767.24609375 332.9140625 768.2421875 C325.22589083 776.72302403 317.39417495 785.02397011 308.68359375 792.47265625 C306.13708942 794.68150254 303.6664984 796.96570554 301.1875 799.25 C296.14671115 803.84071842 290.94649497 808.13292464 285.5625 812.3125 C284.59957031 813.07046875 283.63664063 813.8284375 282.64453125 814.609375 C213.2579707 868.73951167 129.89151144 901.8936413 -48.484375 909.35546875 C-138.06851608 898.06193365 -220.87140117 864.21947612 -290.4375 806.3125 C-291.44296875 805.48234375 -292.4484375 804.6521875 -293.484375 803.796875 C-309.12726943 790.79605219 -324.64228649 776.77010138 -337.8046875 761.2265625 C-339.77666334 758.91491618 -341.82594408 756.68104258 -343.875 754.4375 C-403.2656983 688.38151395 -439.7420328 601.78141668 -451.4375 514.3125 C-451.60266113 513.08450684 -451.76782227 511.85651367 -451.93798828 510.59130859 C-456.6658348 473.49702573 -456.79682819 434.32220034 -451.4375 397.3125 C-451.29184601 396.28268005 -451.29184601 396.28268005 -451.14324951 395.23205566 C-444.86688742 350.93286227 -433.08659666 308.06639495 -414.4375 267.3125 C-413.95812988 266.26030273 -413.47875977 265.20810547 -412.98486328 264.12402344 C-399.97666408 235.79162517 -384.08517831 209.28275577 -365.4375 184.3125 C-364.98632812 183.70680176 -364.53515625 183.10110352 -364.0703125 182.47705078 C-355.829129 171.46071117 -346.97152264 160.98661537 -337.703125 150.82421875 C-336.44277239 149.42696577 -335.18934588 148.02304855 -333.96459961 146.59448242 C-329.06159523 140.88660336 -323.83116394 135.5571677 -318.5 130.25 C-317.21706055 128.96125977 -317.21706055 128.96125977 -315.90820312 127.64648438 C-310.91293914 122.65884093 -305.80214259 117.89806611 -300.4375 113.3125 C-299.38913682 112.38709986 -298.34218414 111.46009852 -297.296875 110.53125 C-288.19718255 102.53600956 -278.6259213 95.24081428 -268.85693359 88.08496094 C-267.34612501 86.97815263 -265.83813975 85.86746771 -264.33447266 84.75097656 C-206.28511711 41.69926229 -136.76361655 15.59117454 -65.6875 4.5625 C-63.79124878 4.26436401 -63.79124878 4.26436401 -61.85668945 3.96020508 C-41.30619774 0.91283349 -20.75774169 -0.07028689 0 0 Z M-65.4375 27.3125 C-66.09550598 27.41904907 -66.75351196 27.52559814 -67.43145752 27.63537598 C-132.13412096 38.16493489 -195.23869097 62.70980161 -248.4375 101.3125 C-249.1893457 101.85084473 -249.94119141 102.38918945 -250.71582031 102.94384766 C-261.39525296 110.59636232 -271.64268319 118.55560803 -281.4375 127.3125 C-282.78908203 128.51519531 -282.78908203 128.51519531 -284.16796875 129.7421875 C-285.8178142 131.22065365 -287.4625635 132.70483121 -289.1015625 134.1953125 C-290.62673484 135.57765933 -292.16281854 136.94808841 -293.7109375 138.3046875 C-299.20525327 143.1418758 -304.44065113 148.21030234 -309.625 153.375 C-310.29031738 154.0357251 -310.95563477 154.6964502 -311.64111328 155.37719727 C-316.10948147 159.85944927 -320.31032859 164.51639297 -324.4375 169.3125 C-325.36325424 170.3605505 -326.29025674 171.40750029 -327.21875 172.453125 C-380.7010522 233.29949876 -414.32264474 309.76118817 -427.4375 389.3125 C-427.59347656 390.25851074 -427.74945313 391.20452148 -427.91015625 392.17919922 C-429.91887888 404.79479167 -430.88247791 417.44597663 -431.625 430.1875 C-431.66797211 430.91372559 -431.71094421 431.63995117 -431.75521851 432.38818359 C-432.68318314 448.45924734 -432.6503869 464.43204447 -431.6875 480.5 C-431.64426605 481.22550049 -431.6010321 481.95100098 -431.55648804 482.69848633 C-429.33516914 518.95198515 -422.83538449 554.80831909 -411.4375 589.3125 C-411.06254395 590.44848633 -410.68758789 591.58447266 -410.30126953 592.75488281 C-394.05767262 641.2894785 -369.68400341 686.54348413 -337.4375 726.3125 C-336.68082031 727.26253906 -335.92414063 728.21257813 -335.14453125 729.19140625 C-330.35582674 735.14974124 -325.31669476 740.81703109 -320.1171875 746.4140625 C-317.72945109 748.99671617 -315.39116356 751.61425993 -313.0625 754.25 C-305.65506455 762.49526029 -297.8283067 770.48256417 -289.37109375 777.65625 C-287.13413065 779.57235577 -284.97946422 781.56762856 -282.8125 783.5625 C-223.08158753 837.30216593 -144.85087054 871.61797707 -66 884.125 C-64.1744458 884.41733521 -64.1744458 884.41733521 -62.31201172 884.71557617 C-41.34485235 887.86912811 -20.43241495 888.72344478 0.75 888.6875 C2.0197467 888.68662384 3.28949341 888.68574768 4.59771729 888.68484497 C25.50470865 888.63745653 45.93198419 887.74030475 66.5625 884.3125 C67.29801086 884.19134827 68.03352173 884.07019653 68.7913208 883.94537354 C108.31880844 877.37099514 146.0773499 865.97188625 182.5625 849.3125 C183.37444824 848.94833984 184.18639648 848.58417969 185.02294922 848.20898438 C204.40219125 839.50761324 222.5218421 828.88056837 240.1875 817.125 C240.81048981 816.71156342 241.43347961 816.29812683 242.0753479 815.87216187 C250.85262802 810.02862337 259.28453929 803.8423938 267.5625 797.3125 C268.32385254 796.71445557 269.08520508 796.11641113 269.86962891 795.50024414 C278.60394326 788.59169285 286.95244981 781.37231591 295.04638672 773.72705078 C297.45077123 771.48373293 299.92149319 769.3143338 302.375 767.125 C334.96829865 737.53888614 361.61318057 700.05473066 382.40087891 661.45507812 C383.50275877 659.42269105 384.62860832 657.40572135 385.76171875 655.390625 C412.50148795 607.22660675 427.70465324 551.06289984 432.5625 496.3125 C432.6553125 495.35883545 432.748125 494.4051709 432.84375 493.42260742 C433.90186868 481.10024858 433.80627416 468.73372337 433.8125 456.375 C433.81317474 455.17175079 433.81384949 453.96850159 433.81454468 452.72879028 C433.79794829 434.07615934 433.28170801 415.79469913 430.5625 397.3125 C430.38557617 396.10529297 430.20865234 394.89808594 430.02636719 393.65429688 C416.85978161 306.74118793 378.85264464 227.22066173 319.5625 162.3125 C318.68722656 161.34441406 317.81195312 160.37632812 316.91015625 159.37890625 C309.19878621 150.87149748 301.34147929 142.54319147 292.6015625 135.07421875 C290.3355777 133.11644261 288.14106506 131.09021052 285.9375 129.0625 C279.73689706 123.47628607 273.18420457 118.38444392 266.5625 113.3125 C265.91974121 112.81814453 265.27698242 112.32378906 264.61474609 111.81445312 C204.8586367 65.96849213 134.91813683 37.24715248 60.5625 26.3125 C59.49870117 26.14733887 58.43490234 25.98217773 57.33886719 25.81201172 C17.49239623 19.85659635 -25.70149265 20.78014498 -65.4375 27.3125 Z " fill="#0D46F8" transform="translate(639.4375,184.6875)"/>
<path d="M0 0 C0 15.18 0 30.36 0 46 C-23.11154145 55.84509772 -46.22485793 65.6836551 -69.375 75.4375 C-93.29627258 85.5169197 -117.15151045 95.7497782 -141 106 C-138.11977444 108.32797361 -135.38074787 109.82707297 -131.953125 111.21484375 C-130.90664795 111.6428125 -129.8601709 112.07078125 -128.78198242 112.51171875 C-127.61642822 112.98222656 -126.45087402 113.45273437 -125.25 113.9375 C-123.30707981 114.73030278 -121.36515645 115.5255159 -119.42326355 116.3208313 C-117.99074743 116.90744963 -116.55796769 117.49342455 -115.12495422 118.0788269 C-106.14013083 121.75200742 -97.18408856 125.49421222 -88.22607422 129.23217773 C-84.1327544 130.94008468 -80.03879189 132.64644825 -75.94485474 134.35287476 C-72.78462162 135.67014851 -69.62448209 136.98764658 -66.46435547 138.30517578 C-56.6095018 142.41365864 -46.753634 146.51970772 -36.89785767 150.62597656 C-31.92665966 152.69717653 -26.9555187 154.76851343 -21.984375 156.83984375 C-20.32519561 157.53116933 -18.66601593 158.22249422 -17.00683594 158.91381836 C-11.33789062 161.27587891 -5.66894531 163.63793945 0 166 C0 180.85 0 195.7 0 211 C-6.99502351 208.08540687 -13.91762185 205.19370363 -20.76953125 201.98828125 C-21.55604568 201.62280182 -22.34256012 201.25732239 -23.15290833 200.88076782 C-24.83404688 200.09926691 -26.5146968 199.31671409 -28.19488525 198.53317261 C-31.81125077 196.84675243 -35.43007401 195.16563497 -39.04870605 193.48408508 C-40.92586621 192.61170525 -42.80289995 191.73905337 -44.67980957 190.86613464 C-53.98644062 186.53828473 -63.30465508 182.23571674 -72.625 177.9375 C-74.24146834 177.19176052 -75.85792339 176.44599222 -77.47436523 175.70019531 C-82.31607298 173.46642713 -87.15801351 171.23316389 -92 169 C-97.65081888 166.39379598 -103.30154388 163.78738883 -108.95199585 161.1803894 C-110.56201093 160.43758473 -112.17205711 159.69484747 -113.78213501 158.95217896 C-123.17111276 154.62112171 -132.55563877 150.28065888 -141.93359375 145.92578125 C-143.30164154 145.29075432 -143.30164154 145.29075432 -144.69732666 144.64289856 C-149.07363041 142.61146034 -153.44932224 140.57872965 -157.82373047 138.54321289 C-168.50070056 133.58183863 -179.23008403 128.75666794 -190 124 C-190 111.79 -190 99.58 -190 87 C-179.72875542 81.86437771 -169.46415347 76.79173546 -159.0625 71.9375 C-158.04629074 71.46203232 -158.04629074 71.46203232 -157.009552 70.97695923 C-145.32845117 65.51258386 -133.59977954 60.15641178 -121.85180664 54.83764648 C-111.04421546 49.94254589 -100.26823689 44.98100714 -89.5 40 C-76.11483175 33.81001712 -62.71222876 27.66104166 -49.27905273 21.57592773 C-41.92221389 18.24246859 -34.57491552 14.88944629 -27.23828125 11.51171875 C-25.60712539 10.76181836 -23.97594077 10.01198051 -22.34472656 9.26220703 C-19.96816849 8.16982399 -17.59220868 7.07623746 -15.21813965 5.97845459 C-13.04406798 4.97321297 -10.86796646 3.97249551 -8.69140625 2.97265625 C-8.04101883 2.67034592 -7.39063141 2.36803558 -6.72053528 2.05656433 C-2.22746488 0 -2.22746488 0 0 0 Z " fill="#FCFDFE" transform="translate(524,511)"/>
<path d="M0 0 C5.57667935 1.75839633 10.8721026 3.73442794 16.15625 6.265625 C16.8080423 6.57554886 17.45983459 6.88547272 18.13137817 7.20478821 C19.52880598 7.86959586 20.92519754 8.53658547 22.32061768 9.20559692 C26.10135143 11.01739925 29.89061047 12.81119629 33.6796875 14.60546875 C34.45694183 14.97385361 35.23419617 15.34223846 36.03500366 15.7217865 C43.85932324 19.42205816 51.73680533 23.00095791 59.625 26.5625 C70.45730643 31.45755996 81.2469452 36.43321646 92 41.5 C103.47562211 46.90701021 114.99666413 52.20311915 126.55563354 57.42944336 C138.38752282 62.78138221 150.15830741 68.25590801 161.89453125 73.81445312 C169.20403811 77.26832101 176.5516383 80.5970943 183.9834137 83.77954102 C188.89640887 85.89640887 188.89640887 85.89640887 190 87 C190.08858646 89.73894085 190.11523479 92.4525327 190.09765625 95.19140625 C190.09553383 96.42116432 190.09553383 96.42116432 190.09336853 97.67576599 C190.08775289 100.30471382 190.07519779 102.93357773 190.0625 105.5625 C190.05748701 107.34049357 190.05292376 109.11848846 190.04882812 110.89648438 C190.03777839 115.26435545 190.02050331 119.63216348 190 124 C166.30216473 134.99924888 142.58978227 145.9656324 118.84333801 156.85955811 C113.45947914 159.32958205 108.07702974 161.80265735 102.6953125 164.27734375 C77.6381404 175.79848764 77.6381404 175.79848764 66.265625 180.9921875 C65.5502356 181.31889938 64.83484619 181.64561127 64.09777832 181.98222351 C61.23247249 183.29061324 58.36710151 184.59885966 55.50146484 185.90652466 C46.71460205 189.91678153 37.93772732 193.94790917 29.171875 198.00390625 C28.26871552 198.42163803 27.36555603 198.83936981 26.43502808 199.26976013 C22.01355873 201.31513516 17.59315528 203.36276668 13.17431641 205.41381836 C11.58238541 206.15094075 9.99042721 206.88800442 8.3984375 207.625 C7.29335846 208.13934349 7.29335846 208.13934349 6.16595459 208.66407776 C1.11337596 211 1.11337596 211 0 211 C0 195.82 0 180.64 0 165 C5.87651375 162.06174312 11.59480001 159.21333003 17.63671875 156.71484375 C18.3371933 156.42160217 19.03766785 156.1283606 19.7593689 155.82623291 C21.27322716 155.19279161 22.78771064 154.56084273 24.30276489 153.93026733 C28.52009995 152.17458702 32.73236105 150.40679213 36.9453125 148.640625 C38.28557243 148.0792408 38.28557243 148.0792408 39.65290833 147.5065155 C50.14104109 143.10978663 60.60124731 138.6477072 71.0625 134.1875 C89.42880124 126.35958422 107.81385603 118.57698839 126.21313477 110.8269043 C127.1273822 110.4415451 128.04162964 110.05618591 128.98358154 109.65914917 C130.69292857 108.93869223 132.40251049 108.21879224 134.11236572 107.49954224 C138.09468247 105.83467411 138.09468247 105.83467411 142 104 C122.02092242 95.36683022 101.98724061 86.87979189 81.87207031 78.56860352 C80.13734893 77.85177574 78.40264855 77.13489714 76.66796875 76.41796875 C75.80277618 76.06039993 74.93758362 75.70283112 74.0461731 75.33442688 C62.86658355 70.70977467 51.71250141 66.02413532 40.55621338 61.34362793 C29.30271891 56.62320325 18.0443955 51.91960755 6.7199707 47.37109375 C1.10267119 45.10267119 1.10267119 45.10267119 0 44 C-0.0927833 42.61839885 -0.11747043 41.23211962 -0.11352539 39.84741211 C-0.11341209 38.52615578 -0.11341209 38.52615578 -0.11329651 37.1782074 C-0.10555458 35.74227989 -0.10555458 35.74227989 -0.09765625 34.27734375 C-0.0962413 33.30213272 -0.09482635 32.32692169 -0.09336853 31.32215881 C-0.08775133 28.19390857 -0.07519593 25.06572877 -0.0625 21.9375 C-0.05748722 19.82226666 -0.05292393 17.70703219 -0.04882812 15.59179688 C-0.03777631 10.39450704 -0.02102146 5.19725855 0 0 Z " fill="#FEFEFE" transform="translate(757,459)"/>
<path d="M0 0 C1.00869141 -0.02900391 2.01738281 -0.05800781 3.05664062 -0.08789062 C10.70334578 -0.15190039 17.98544291 0.85791393 24.00537109 5.95874023 C28.57534196 10.66556661 30.02383925 15.53479251 30.08984375 21.984375 C29.6902694 29.40211417 28.07651965 35.29848035 22.75 40.625 C14.88097607 45.56601503 7.89322878 46.48068386 -1.125 46.4375 C-1.94419922 46.44136719 -2.76339844 46.44523438 -3.60742188 46.44921875 C-9.68406792 46.43921604 -9.68406792 46.43921604 -11.9375 45.3125 C-11.96277124 39.06454325 -11.98033344 32.81659959 -11.99243164 26.56860352 C-11.99747298 24.44131986 -12.00430591 22.31403969 -12.01293945 20.18676758 C-12.02501379 17.13622174 -12.03073014 14.08572155 -12.03515625 11.03515625 C-12.04031754 10.07787125 -12.04547882 9.12058624 -12.05079651 8.1342926 C-12.05087204 7.25345505 -12.05094757 6.37261749 -12.05102539 5.46508789 C-12.053246 4.68565323 -12.05546661 3.90621857 -12.05775452 3.10316467 C-11.7270249 -1.8216053 -3.6677501 0.03398163 0 0 Z " fill="#010101" transform="translate(425.9375,805.6875)"/>
<path d="M0 0 C5.61 0 11.22 0 17 0 C17.63228516 2.58134766 17.63228516 2.58134766 18.27734375 5.21484375 C18.8305443 7.45577481 19.38393976 9.69665776 19.9375 11.9375 C20.35418945 13.64196289 20.35418945 13.64196289 20.77929688 15.38085938 C21.04677734 16.46044922 21.31425781 17.54003906 21.58984375 18.65234375 C21.83597412 19.65257568 22.08210449 20.65280762 22.33569336 21.68334961 C22.78094697 23.9425481 22.78094697 23.9425481 24 25 C24.176521 24.31373535 24.35304199 23.6274707 24.53491211 22.92041016 C25.33344535 19.82133442 26.13542849 16.72316179 26.9375 13.625 C27.21529297 12.54476562 27.49308594 11.46453125 27.77929688 10.3515625 C28.04677734 9.3203125 28.31425781 8.2890625 28.58984375 7.2265625 C28.83597412 6.27346191 29.08210449 5.32036133 29.33569336 4.33837891 C30 2 30 2 31 0 C36.28 0 41.56 0 47 0 C47.76069998 5.32489986 48.29113196 10.40678007 48.5625 15.75 C48.6049585 16.56186768 48.64741699 17.37373535 48.69116211 18.21020508 C49.11711763 27.13984408 49.09007202 36.06285419 49 45 C45.37 45 41.74 45 38 45 C37.23103775 41.15518874 36.82251095 37.91280492 36.68359375 34.04296875 C36.64169922 32.93115234 36.59980469 31.81933594 36.55664062 30.67382812 C36.51732422 29.52333984 36.47800781 28.37285156 36.4375 27.1875 C36.39431641 26.01767578 36.35113281 24.84785156 36.30664062 23.64257812 C36.20081721 20.76182969 36.09873175 17.88099877 36 15 C35.6443396 16.30988892 35.6443396 16.30988892 35.28149414 17.64624023 C34.40266886 20.87663916 33.52084953 24.10618902 32.63696289 27.33520508 C32.25456712 28.73461435 31.87337826 30.13435398 31.4934082 31.53442383 C30.94797426 33.5433559 30.39825291 35.5510714 29.84765625 37.55859375 C29.51773682 38.76829834 29.18781738 39.97800293 28.84790039 41.22436523 C28 44 28 44 27 45 C25.48071962 45.07179964 23.95832518 45.08392007 22.4375 45.0625 C21.61121094 45.05347656 20.78492188 45.04445313 19.93359375 45.03515625 C19.29550781 45.02355469 18.65742187 45.01195312 18 45 C15.92834745 39.32715704 14.68093659 33.50821401 13.375 27.625 C12.199375 22.365625 12.199375 22.365625 11 17 C10.34 26.24 9.68 35.48 9 45 C5.37 45 1.74 45 -2 45 C-2.13406335 34.62405499 -1.75664225 24.41520646 -1 14.0625 C-0.90316884 12.68558034 -0.80681294 11.30862717 -0.7109375 9.93164062 C-0.47859536 6.62076508 -0.23997223 3.31033126 0 0 Z " fill="#010101" transform="translate(743,806)"/>
<path d="M0 0 C5.30106673 5.54202431 6.98388338 10.79745043 7.1875 18.4375 C6.93910862 24.90320292 6.41816265 29.96427711 1.9453125 34.84375 C-4.51099632 40.7884268 -9.58275046 42.28950459 -18.30859375 42.12890625 C-24.29013602 41.61257126 -28.98981257 39.13518743 -33.25 34.875 C-38.46310531 27.54847362 -38.10386671 19.50261156 -37.25 10.875 C-35.80302278 4.85195732 -32.29167278 1.48032395 -27.2578125 -1.9375 C-17.85422169 -7.49915682 -8.68949875 -5.68159534 0 0 Z " fill="#020202" transform="translate(396.25,810.125)"/>
<path d="M0 0 C4.95 0 9.9 0 15 0 C16.60494203 3.04125976 18.20897799 6.08299163 19.8125 9.125 C20.26431641 9.9809375 20.71613281 10.836875 21.18164062 11.71875 C21.62314453 12.55664062 22.06464844 13.39453125 22.51953125 14.2578125 C22.92276611 15.0223877 23.32600098 15.78696289 23.74145508 16.57470703 C25.19087249 19.36782295 26.5927113 22.18542261 28 25 C28 16.75 28 8.5 28 0 C31.96 0 35.92 0 40 0 C40 14.85 40 29.7 40 45 C35.38 45 30.76 45 26 45 C21.38 35.76 16.76 26.52 12 17 C12 26.24 12 35.48 12 45 C8.04 45 4.08 45 0 45 C0 30.15 0 15.3 0 0 Z " fill="#050505" transform="translate(829,806)"/>
<path d="M0 0 C4.62 0 9.24 0 14 0 C15.23577309 2.10050761 16.46351382 4.2051342 17.6875 6.3125 C18.19700195 7.17584961 18.19700195 7.17584961 18.71679688 8.05664062 C21.92210066 13.59852099 24.30751542 19.07653393 27 25 C27.33 16.75 27.66 8.5 28 0 C31.63 0 35.26 0 39 0 C39 14.85 39 29.7 39 45 C34.71 45 30.42 45 26 45 C20.79197379 36.1833668 16.16385965 27.36868421 12 18 C11.67 26.91 11.34 35.82 11 45 C7.37 45 3.74 45 0 45 C0 30.15 0 15.3 0 0 Z " fill="#010101" transform="translate(492,806)"/>
<path d="M0 0 C1.02544922 -0.02900391 2.05089844 -0.05800781 3.10742188 -0.08789062 C9.87686986 -0.14419442 14.17951204 0.69129139 19.9375 4.3125 C22.45448153 7.2227599 22.8886702 8.92883731 23.375 12.75 C22.85703428 16.96772088 21.6407129 19.06864452 18.9375 22.3125 C17.9475 22.6425 16.9575 22.9725 15.9375 23.3125 C16.42669922 23.98732422 16.42669922 23.98732422 16.92578125 24.67578125 C21.1210794 30.85116112 23.9375 37.7529385 23.9375 45.3125 C19.9775 45.3125 16.0175 45.3125 11.9375 45.3125 C9.85614693 40.01451036 8.22458387 34.85686129 6.9375 29.3125 C4.6275 28.9825 2.3175 28.6525 -0.0625 28.3125 C-0.0625 33.9225 -0.0625 39.5325 -0.0625 45.3125 C-4.0225 45.3125 -7.9825 45.3125 -12.0625 45.3125 C-12.08714455 39.06453746 -12.10533343 32.81660297 -12.11743164 26.56860352 C-12.12247298 24.44131986 -12.12930591 22.31403969 -12.13793945 20.18676758 C-12.15001379 17.13622174 -12.15573014 14.08572155 -12.16015625 11.03515625 C-12.16531754 10.07787125 -12.17047882 9.12058624 -12.17579651 8.1342926 C-12.17587204 7.25345505 -12.17594757 6.37261749 -12.17602539 5.46508789 C-12.178246 4.68565323 -12.18046661 3.90621857 -12.18275452 3.10316467 C-11.85087188 -1.83877453 -3.67842198 0.03378832 0 0 Z " fill="#010101" transform="translate(707.0625,805.6875)"/>
<path d="M0 0 C0.79792969 -0.00773438 1.59585938 -0.01546875 2.41796875 -0.0234375 C3.19011719 -0.02085937 3.96226562 -0.01828125 4.7578125 -0.015625 C5.45277832 -0.01336914 6.14774414 -0.01111328 6.86376953 -0.00878906 C8.875 0.25 8.875 0.25 12.875 2.25 C12.215 5.22 11.555 8.19 10.875 11.25 C9.70582031 11.21519531 8.53664063 11.18039062 7.33203125 11.14453125 C5.78386859 11.11638284 4.23569032 11.08908381 2.6875 11.0625 C1.91857422 11.03736328 1.14964844 11.01222656 0.35742188 10.98632812 C-4.28729839 10.92652486 -7.41125625 11.13772887 -11.125 14.25 C-14.04148262 18.48815148 -13.63762947 23.30793153 -13.125 28.25 C-11.81061699 31.57054655 -10.97640081 32.77699955 -7.875 34.5 C-4.64295537 35.38146672 -1.44968113 35.85886104 1.875 36.25 C1.875 33.61 1.875 30.97 1.875 28.25 C-0.105 28.25 -2.085 28.25 -4.125 28.25 C-4.125 24.95 -4.125 21.65 -4.125 18.25 C1.815 18.25 7.755 18.25 13.875 18.25 C13.875 26.83 13.875 35.41 13.875 44.25 C2.07154964 46.61069007 -8.19992221 48.26850004 -19.125 42.25 C-23.3702275 38.73641491 -26.09667769 34.70010825 -27.125 29.25 C-27.79839658 21.81107216 -27.81750367 15.34501175 -23.125 9.25 C-16.19985689 1.80915475 -9.96053693 -0.09749302 0 0 Z " fill="#030303" transform="translate(569.125,805.75)"/>
<path d="M0 0 C5.61 0 11.22 0 17 0 C26.59453303 30.34168565 26.59453303 30.34168565 30 45 C25.71 45 21.42 45 17 45 C15.515 40.545 15.515 40.545 14 36 C10.04 35.67 6.08 35.34 2 35 C1.855625 36.27875 1.71125 37.5575 1.5625 38.875 C1.29357254 41.25692894 1.07773654 42.84452691 0 45 C-3.96 45 -7.92 45 -12 45 C-11.35329346 39.4692112 -10.07550917 34.33731705 -8.49609375 29.00390625 C-8.2533522 28.17036118 -8.01061066 27.3368161 -7.76051331 26.47801208 C-6.99064481 23.83817758 -6.2141842 21.20033628 -5.4375 18.5625 C-4.91167131 16.76379988 -4.38627621 14.96497295 -3.86132812 13.16601562 C-2.58003193 8.77560259 -1.28982387 4.38795106 0 0 Z " fill="#010101" transform="translate(891,806)"/>
<path d="M0 0 C9.9 0 19.8 0 30 0 C30 3.3 30 6.6 30 10 C24.39 10 18.78 10 13 10 C13 12.31 13 14.62 13 17 C18.28 17 23.56 17 29 17 C29 20.3 29 23.6 29 27 C23.72 27 18.44 27 13 27 C13 29.64 13 32.28 13 35 C18.94 35 24.88 35 31 35 C31 38.3 31 41.6 31 45 C20.77 45 10.54 45 0 45 C0 30.15 0 15.3 0 0 Z " fill="#010101" transform="translate(653,806)"/>
<path d="M0 0 C-0.66 3.3 -1.32 6.6 -2 10 C-2.71285156 9.89300781 -3.42570312 9.78601563 -4.16015625 9.67578125 C-10.36702157 8.89887886 -14.7296614 8.37664221 -20 12 C-22.4998431 15.78448469 -23.27231999 19.69422019 -23 24.1875 C-21.85544807 28.55110424 -20.47557071 30.20258943 -17 33 C-14.11584117 34.44207941 -11.58278472 34.09394887 -8.375 34.0625 C-6.59222656 34.04896484 -6.59222656 34.04896484 -4.7734375 34.03515625 C-3.85820312 34.02355469 -2.94296875 34.01195312 -2 34 C-1.505 38.95 -1.505 38.95 -1 44 C-9.2360015 46.05900038 -18.42830498 46.35304246 -26.09765625 42.33984375 C-30.47814772 39.25461054 -34.0619953 35.01601217 -36 30 C-36.794918 21.97687413 -37.28071809 13.58131038 -32 7 C-23.71938628 -2.57651878 -11.49605401 -3.832018 0 0 Z " fill="#010101" transform="translate(352,807)"/>
<path d="M0 0 C11.88 0 23.76 0 36 0 C36 3.3 36 6.6 36 10 C32.04 10 28.08 10 24 10 C24 21.55 24 33.1 24 45 C19.71 45 15.42 45 11 45 C11 33.45 11 21.9 11 10 C7.37 10 3.74 10 0 10 C0 6.7 0 3.4 0 0 Z " fill="#040404" transform="translate(608,806)"/>
<path d="M0 0 C4.29 0 8.58 0 13 0 C13 11.55 13 23.1 13 35 C18.61 35 24.22 35 30 35 C30 38.3 30 41.6 30 45 C20.1 45 10.2 45 0 45 C0 30.15 0 15.3 0 0 Z " fill="#040404" transform="translate(931,806)"/>
<path d="M0 0 C1.11916738 -0.0039821 2.23833477 -0.00796419 3.39141631 -0.01206696 C5.23575802 -0.00332844 5.23575802 -0.00332844 7.11735916 0.00558662 C9.07646551 0.00302335 9.07646551 0.00302335 11.07514977 0.00040829 C14.70325867 -0.00406991 18.33124979 0.00394489 21.95934367 0.01396441 C25.87069367 0.02258982 29.78203687 0.0196794 33.69339371 0.01815987 C40.47104088 0.01711044 47.24864958 0.02339307 54.02628708 0.03463554 C63.82564496 0.05087975 73.62498422 0.05609744 83.42435411 0.05861153 C99.32262301 0.06299033 115.22087141 0.07630444 131.11912918 0.09521675 C146.56411512 0.11357077 162.00909548 0.12772961 177.45409012 0.13623238 C178.88179116 0.13702055 178.88179116 0.13702055 180.33833465 0.13782464 C185.11317081 0.14043469 189.888007 0.14296211 194.66284323 0.14544845 C234.28386567 0.1661867 273.90486521 0.20141726 313.52586746 0.24609566 C312.86586746 3.21609566 312.20586746 6.18609566 311.52586746 9.24609566 C311.19586746 9.24609566 310.86586746 9.24609566 310.52586746 9.24609566 C310.85586746 6.93609566 311.18586746 4.62609566 311.52586746 2.24609566 C205.59586746 2.24609566 99.66586746 2.24609566 -9.47413254 2.24609566 C-5.5537275 0.28589314 -4.18640595 -0.00328603 0 0 Z " fill="#1846D7" transform="translate(334.4741325378418,464.75390434265137)"/>
<path d="M0 0 C3.96 0 7.92 0 12 0 C12 14.85 12 29.7 12 45 C8.04 45 4.08 45 0 45 C0 30.15 0 15.3 0 0 Z " fill="#000000" transform="translate(804,806)"/>
<path d="M0 0 C3.96 0 7.92 0 12 0 C12 14.85 12 29.7 12 45 C8.04 45 4.08 45 0 45 C0 30.15 0 15.3 0 0 Z " fill="#000000" transform="translate(467,806)"/>
<path d="M0 0 C3.10164769 2.55024365 4.72566416 4.17699247 6 8 C6.99713274 19.3280818 6.99713274 19.3280818 4.0625 23.6875 C1.12066365 26.98592257 1.12066365 26.98592257 -2.75 27.4375 C-6.40104534 27.37195161 -6.92924147 27.05871453 -9.9375 24.5625 C-12.64893391 20.6470056 -13.27009017 16.69956903 -13 12 C-12.17445385 7.75145762 -11.06720962 4.21441094 -8.1875 0.9375 C-5.14948579 -0.36450609 -3.27613904 -0.53487984 0 0 Z " fill="#FDFDFD" transform="translate(384,815)"/>
<path d="M0 0 C9.01967131 -0.18426295 9.01967131 -0.18426295 13 3 C15.99345174 5.88654275 16.64038345 8.7994847 16.9921875 12.9140625 C17.01137149 18.03618706 15.80893416 21.11402449 12.375 24.875 C8.24860385 27.47310128 5.82437183 27.83646197 1 28 C0 27 0 27 -0.11352539 24.40795898 C-0.10828857 23.28204346 -0.10305176 22.15612793 -0.09765625 20.99609375 C-0.09443359 19.78115234 -0.09121094 18.56621094 -0.08789062 17.31445312 C-0.07951172 16.03505859 -0.07113281 14.75566406 -0.0625 13.4375 C-0.05798828 12.15423828 -0.05347656 10.87097656 -0.04882812 9.54882812 C-0.03699545 6.36583978 -0.02051068 3.18294238 0 0 Z " fill="#FCFCFC" transform="translate(426,815)"/>
<path d="M0 0 C1.01210686 3.1487769 0.79156517 4.84836076 0 8 C-0.0863868 9.44268621 -0.12378371 10.88879439 -0.12304783 12.33406448 C-0.12503888 13.19894399 -0.12702993 14.06382349 -0.12908131 14.95491147 C-0.12616847 15.90043339 -0.12325563 16.8459553 -0.12025452 17.82012939 C-0.12110894 18.82810097 -0.12196337 19.83607255 -0.12284368 20.87458873 C-0.12449455 24.26178801 -0.11898348 27.64893807 -0.11352539 31.03613281 C-0.11324341 33.46033731 -0.11340147 35.88454189 -0.1139679 38.30874634 C-0.11419583 43.53287484 -0.11135412 48.75699216 -0.10573006 53.98111725 C-0.09760389 61.53433008 -0.09499869 69.08753687 -0.09374207 76.6407536 C-0.09155331 88.89527145 -0.08489798 101.14978264 -0.07543945 113.40429688 C-0.06626079 125.30859341 -0.05918218 137.21288814 -0.05493164 149.1171875 C-0.05466892 149.85093752 -0.05440619 150.58468754 -0.05413551 151.3406724 C-0.05283047 155.02167138 -0.05156677 158.70267038 -0.05032361 162.38366938 C-0.03995647 192.92245102 -0.0222686 223.46122458 0 254 C0.66 254 1.32 254 2 254 C3.31223496 257.93670488 2.24296256 260.12488144 1 264 C-2.82273428 260.17726572 -2.1195908 254.9582678 -2.1384055 249.84394944 C-2.1360826 248.41385239 -2.1360826 248.41385239 -2.13371277 246.9548645 C-2.13597833 245.93464325 -2.13824388 244.91442199 -2.14057809 243.86328495 C-2.14691478 240.44025792 -2.14608894 237.01727053 -2.14526367 233.59423828 C-2.14825535 231.14183501 -2.1516579 228.68943221 -2.15544128 226.23703003 C-2.16336545 220.26428024 -2.16649588 214.29154607 -2.16705366 208.31879248 C-2.16752905 203.4634208 -2.16958493 198.60805238 -2.17275429 193.75268173 C-2.18155923 179.98329836 -2.18617389 166.21392279 -2.18542381 152.44453658 C-2.18538386 151.70245377 -2.1853439 150.96037095 -2.18530273 150.19580078 C-2.18526185 149.45281077 -2.18522097 148.70982076 -2.18517885 147.9443159 C-2.18477237 135.9022105 -2.19434285 123.86013638 -2.2084411 111.81804003 C-2.22280674 99.44985998 -2.22971119 87.08169518 -2.22884732 74.71350658 C-2.22851543 67.77107922 -2.23125916 60.82868464 -2.24202538 53.8862648 C-2.252085 47.35770916 -2.2517931 40.82921094 -2.24450874 34.30064774 C-2.24346155 31.90409748 -2.24583374 29.50754294 -2.2518692 27.11100006 C-2.25957291 23.84028578 -2.25495489 20.56981179 -2.24723816 17.29910278 C-2.25238172 16.3501662 -2.25752529 15.40122961 -2.26282471 14.42353737 C-2.23570393 9.22381379 -1.69720327 4.92381674 0 0 Z " fill="#1B46D1" transform="translate(306,484)"/>
<path d="M0 0 C-3.89735233 2.59823489 -7.58528442 3.18502821 -12.125 4.125 C-13.35089844 4.39763672 -13.35089844 4.39763672 -14.6015625 4.67578125 C-20.17495529 5.84866296 -25.30633733 6.17184093 -31 6 C-31 6.99 -31 7.98 -31 9 C-35.95 8.67 -40.9 8.34 -46 8 C-46 8.66 -46 9.32 -46 10 C-46.88522339 10.03758423 -46.88522339 10.03758423 -47.78833008 10.07592773 C-50.46326814 10.19200052 -53.1378638 10.31467572 -55.8125 10.4375 C-57.2056543 10.49647461 -57.2056543 10.49647461 -58.62695312 10.55664062 C-59.9659668 10.61948242 -59.9659668 10.61948242 -61.33203125 10.68359375 C-62.56530151 10.73858032 -62.56530151 10.73858032 -63.82348633 10.79467773 C-66.17905178 10.93427772 -66.17905178 10.93427772 -69 12 C-70.81460953 12.09316598 -72.63246386 12.12792265 -74.44946289 12.12939453 C-76.12118309 12.13412277 -76.12118309 12.13412277 -77.82667542 12.13894653 C-79.02984909 12.1369223 -80.23302277 12.13489807 -81.47265625 12.1328125 C-82.70664658 12.13376923 -83.9406369 12.13472595 -85.21202087 12.13571167 C-88.49099482 12.13656711 -91.76992149 12.13253825 -95.04888916 12.12695312 C-97.06198634 12.1250005 -99.07503998 12.12694798 -101.08813477 12.13037109 C-104.94549602 12.13652885 -108.80279236 12.13580548 -112.66015625 12.1328125 C-113.86535416 12.13483673 -115.07055206 12.13686096 -116.31227112 12.13894653 C-117.97926308 12.13421829 -117.97926308 12.13421829 -119.67993164 12.12939453 C-120.66127579 12.12859894 -121.64261993 12.12780334 -122.65370178 12.12698364 C-125 12 -125 12 -127 11 C-128.3389535 10.87311796 -129.68312475 10.79830001 -131.02734375 10.75390625 C-131.81947266 10.72103516 -132.61160156 10.68816406 -133.42773438 10.65429688 C-135.09687197 10.59324671 -136.76615069 10.53593653 -138.43554688 10.48242188 C-139.22896484 10.44826172 -140.02238281 10.41410156 -140.83984375 10.37890625 C-141.92833618 10.34132202 -141.92833618 10.34132202 -143.03881836 10.30297852 C-145 10 -145 10 -148 8 C-142.77336887 7.89592991 -137.63377247 7.98738962 -132.42773438 8.48901367 C-126.08132827 9.03783772 -119.77403491 9.19414021 -113.40625 9.23828125 C-111.64620384 9.25290405 -111.64620384 9.25290405 -109.8506012 9.26782227 C-74.88221543 9.49843785 -41.72379985 7.59122057 -7.47485352 0.39550781 C-4.94074177 -0.00947009 -2.56171051 -0.07001875 0 0 Z " fill="#1E4AD4" transform="translate(738,1063)"/>
<path d="M0 0 C0 0.66 0 1.32 0 2 C-1.32 2 -2.64 2 -4 2 C-4 2.66 -4 3.32 -4 4 C-6.5614657 6.29648649 -7.47967572 7 -11 7 C-10.67 7.99 -10.34 8.98 -10 10 C-10.66 10 -11.32 10 -12 10 C-12 10.66 -12 11.32 -12 12 C-12.66 12.66 -13.32 13.32 -14 14 C-13.67 14.66 -13.34 15.32 -13 16 C-13.66 16 -14.32 16 -15 16 C-15 16.66 -15 17.32 -15 18 C-13.68 18 -12.36 18 -11 18 C-11 18.66 -11 19.32 -11 20 C-9.68 20 -8.36 20 -7 20 C-7 20.66 -7 21.32 -7 22 C-15.17397951 19.41874331 -23.06640834 16.22988119 -31 13 C-26.1724951 9.7816634 -20.79988581 7.70813409 -15.5 5.375 C-14.34628906 4.859375 -13.19257813 4.34375 -12.00390625 3.8125 C-10.89917969 3.32523438 -9.79445313 2.83796875 -8.65625 2.3359375 C-7.13741211 1.66377197 -7.13741211 1.66377197 -5.58789062 0.97802734 C-3 0 -3 0 0 0 Z " fill="#1147F0" transform="translate(411,605)"/>
<path d="M0 0 C7.33834586 -0.36090226 7.33834586 -0.36090226 10.0625 1.125 C11 3 11 3 11 6.0625 C10 9 10 9 7.75 10.375 C5 11 5 11 0 11 C0 7.37 0 3.74 0 0 Z " fill="#F7F7F7" transform="translate(707,815)"/>
<path d="M0 0 C0.33 0 0.66 0 1 0 C0.30736745 7.31112136 -0.97350991 14.41977738 -2.375 21.625 C-4.7390705 34.03230596 -6.53876908 46.4567064 -8 59 C-8.33 59 -8.66 59 -9 59 C-9.02684312 56.18743719 -9.04676188 53.37512759 -9.0625 50.5625 C-9.07087891 49.76005859 -9.07925781 48.95761719 -9.08789062 48.13085938 C-9.0965143 46.08704779 -9.0522815 44.04316098 -9 42 C-8.505 41.505 -8.505 41.505 -8 41 C-7.76572222 38.98405418 -7.58663876 36.961526 -7.4375 34.9375 C-7.31181641 33.28041016 -7.31181641 33.28041016 -7.18359375 31.58984375 C-7.12300781 30.73519531 -7.06242188 29.88054688 -7 29 C-6.34 29 -5.68 29 -5 29 C-5 25.04 -5 21.08 -5 17 C-4.34 17 -3.68 17 -3 17 C-3.0928125 15.2984375 -3.0928125 15.2984375 -3.1875 13.5625 C-3.21380222 8.66152009 -1.76012394 4.526033 0 0 Z " fill="#1F4BD5" transform="translate(218,538)"/>
<path d="M0 0 C1.38457893 2.76915787 0.61375668 3.96541147 -0.26342773 6.90869141 C-0.71400795 8.44005234 -0.71400795 8.44005234 -1.1736908 10.00234985 C-1.50695877 11.10759003 -1.84022675 12.2128302 -2.18359375 13.3515625 C-2.51794937 14.4807309 -2.85230499 15.60989929 -3.1967926 16.77328491 C-4.27021086 20.39259 -5.35373644 24.00878076 -6.4375 27.625 C-7.16537937 30.07271877 -7.89260163 32.52063304 -8.61914062 34.96875 C-10.40513117 40.98145918 -12.19943734 46.99163955 -14 53 C-14.33 53 -14.66 53 -15 53 C-15.04241723 50.66705225 -15.04092937 48.33297433 -15 46 C-14.505 45.505 -14.505 45.505 -14 45 C-13.63239269 42.67182036 -13.29758419 40.3381615 -13 38 C-12.34 38 -11.68 38 -11 38 C-11 36.02 -11 34.04 -11 32 C-10.34 32 -9.68 32 -9 32 C-7.57584088 25.01556007 -6.25397873 18.01694482 -5 11 C-4.34 11 -3.68 11 -3 11 C-3 9.02 -3 7.04 -3 5 C-2.34 5 -1.68 5 -1 5 C-0.67 3.35 -0.34 1.7 0 0 Z " fill="#1D48D5" transform="translate(574,714)"/>
<path d="M0 0 C0.99 0.33 1.98 0.66 3 1 C-1.67418488 3.23038201 -6.35159168 5.45381285 -11.03198242 7.67114258 C-12.6204294 8.42482061 -14.20801381 9.18031959 -15.79467773 9.93774414 C-18.08868092 11.0324289 -20.38581019 12.12030811 -22.68359375 13.20703125 C-23.38085068 13.54152786 -24.0781076 13.87602448 -24.79649353 14.22065735 C-29.75025518 16.55251898 -34.77470629 18.37010103 -40 20 C-39.34 18.02 -38.68 16.04 -38 14 C-37.34 14 -36.68 14 -36 14 C-36 14.66 -36 15.32 -36 16 C-34.68 16 -33.36 16 -32 16 C-32 15.34 -32 14.68 -32 14 C-30.68 14 -29.36 14 -28 14 C-28 13.34 -28 12.68 -28 12 C-26.68 12 -25.36 12 -24 12 C-24 11.34 -24 10.68 -24 10 C-20.86501708 8.14223235 -18.62528568 7.79859524 -15 8 C-15 7.34 -15 6.68 -15 6 C-13.68 6 -12.36 6 -11 6 C-11 5.34 -11 4.68 -11 4 C-10.06027344 3.69255859 -10.06027344 3.69255859 -9.1015625 3.37890625 C-7.87566406 2.97478516 -7.87566406 2.97478516 -6.625 2.5625 C-5.81289063 2.29566406 -5.00078125 2.02882813 -4.1640625 1.75390625 C-1.98968201 1.04820271 -1.98968201 1.04820271 0 0 Z " fill="#1C48D8" transform="translate(488,525)"/>
<path d="M0 0 C0.33 0.99 0.66 1.98 1 3 C0.67 3.66 0.34 4.32 0 5 C-0.08417047 6.37867603 -0.1072567 7.76136848 -0.09765625 9.14257812 C-0.09270142 10.42400696 -0.09270142 10.42400696 -0.08764648 11.73132324 C-0.07934814 12.65529907 -0.0710498 13.5792749 -0.0625 14.53125 C-0.05871338 15.47810669 -0.05492676 16.42496338 -0.05102539 17.4005127 C-0.03877808 20.43372058 -0.02014755 23.4668349 0 26.5 C0.02650046 30.48958074 0.04654485 34.47911472 0.0625 38.46875 C0.07079834 39.39272583 0.07909668 40.31670166 0.08764648 41.26867676 C0.09260132 42.55010559 0.09260132 42.55010559 0.09765625 43.85742188 C0.10289307 44.61083862 0.10812988 45.36425537 0.11352539 46.14050293 C0 48 0 48 -1 50 C-2.65 49.67 -4.3 49.34 -6 49 C-6 48.34 -6 47.68 -6 47 C-7.32 47 -8.64 47 -10 47 C-10 46.34 -10 45.68 -10 45 C-7.69 45.66 -5.38 46.32 -3 47 C-2.67 32.48 -2.34 17.96 -2 3 C-3.65 2.67 -5.3 2.34 -7 2 C-4.35261084 0.5393715 -3.10551666 0 0 0 Z " fill="#1946DC" transform="translate(526,674)"/>
<path d="M0 0 C-3.89735233 2.59823489 -7.58528442 3.18502821 -12.125 4.125 C-12.94226563 4.30675781 -13.75953125 4.48851562 -14.6015625 4.67578125 C-20.17495529 5.84866296 -25.30633733 6.17184093 -31 6 C-31 6.99 -31 7.98 -31 9 C-39.25 9 -47.5 9 -56 9 C-56 8.67 -56 8.34 -56 8 C-55.20118408 7.89977539 -54.40236816 7.79955078 -53.5793457 7.69628906 C-39.44217201 5.90746657 -25.34806274 4.12142305 -11.38598633 1.21972656 C-7.52185245 0.42458132 -3.97275423 -0.22381714 0 0 Z " fill="#244CC8" transform="translate(738,1063)"/>
<path d="M0 0 C2.88611196 4.9476205 4 10.33165837 4 16 C1.36 16 -1.28 16 -4 16 C-3.52546129 13.51986371 -3.04561015 11.04096744 -2.5625 8.5625 C-2.42779297 7.85544922 -2.29308594 7.14839844 -2.15429688 6.41992188 C-1.11328125 1.11328125 -1.11328125 1.11328125 0 0 Z " fill="#F8F8F8" transform="translate(899,816)"/>
<path d="M0 0 C2.43185316 3.64777974 3.75143475 7.33661855 5.25 11.4375 C5.55357422 12.26773682 5.85714844 13.09797363 6.16992188 13.95336914 C8.43158656 20.23466085 10.53241609 26.55813221 12.5 32.9375 C12.9007373 34.20581665 12.9007373 34.20581665 13.30957031 35.49975586 C13.54772461 36.29260986 13.78587891 37.08546387 14.03125 37.90234375 C14.24330078 38.59835693 14.45535156 39.29437012 14.67382812 40.01147461 C15.04804539 42.29291143 14.70183885 43.81653533 14 46 C14 45.01 14 44.02 14 43 C13.34 43 12.68 43 12 43 C11.731875 41.72125 11.46375 40.4425 11.1875 39.125 C9.21155739 30.26108842 6.4852263 21.62445952 2.8125 13.3125 C1.91004956 10.74398721 1.8455554 8.70278046 2 6 C1.34 6 0.68 6 0 6 C0 4.02 0 2.04 0 0 Z " fill="#1D49D4" transform="translate(1065,476)"/>
<path d="M0 0 C7.44948816 1.56415552 14.7414504 3.54654853 22.0625 5.625 C23.21427734 5.94984375 24.36605469 6.2746875 25.55273438 6.609375 C28.36912217 7.40404044 31.18484979 8.2009636 34 9 C34 9.33 34 9.66 34 10 C31.03 10 28.06 10 25 10 C25 10.33 25 10.66 25 11 C23.35 11 21.7 11 20 11 C20.33 9.68 20.66 8.36 21 7 C17.7 6.67 14.4 6.34 11 6 C11 5.34 11 4.68 11 4 C10.28972656 3.87882812 9.57945312 3.75765625 8.84765625 3.6328125 C7.92855469 3.46523437 7.00945312 3.29765625 6.0625 3.125 C4.68771484 2.88136719 4.68771484 2.88136719 3.28515625 2.6328125 C2.53105469 2.42398437 1.77695312 2.21515625 1 2 C0.67 1.34 0.34 0.68 0 0 Z " fill="#1A46D8" transform="translate(501,1051)"/>
<path d="M0 0 C2.31 0.66 4.62 1.32 7 2 C7.33 1.34 7.66 0.68 8 0 C11 0 11 0 13.1875 2.125 C15.2619932 5.41557542 15.35475877 7.18634321 15 11 C11.43503982 9.37879192 8.40991178 7.2405574 5.25 4.9375 C3.77273438 3.86822266 3.77273438 3.86822266 2.265625 2.77734375 C1.51796875 2.19082031 0.7703125 1.60429688 0 1 C0 0.67 0 0.34 0 0 Z " fill="#1047EC" transform="translate(361,1000)"/>
<path d="M0 0 C-0.25 1.875 -0.25 1.875 -1 4 C-3.0625 5.25 -3.0625 5.25 -5 6 C-5 7.32 -5 8.64 -5 10 C-5.66 10.66 -6.32 11.32 -7 12 C-7.94875 11.835 -8.8975 11.67 -9.875 11.5 C-13.20621901 10.96700496 -14.24797917 11.20060177 -17 13 C-4.8125 0 -4.8125 0 0 0 Z " fill="#1348EC" transform="translate(372,273)"/>
<path d="M0 0 C0.33 0 0.66 0 1 0 C1.39253254 4.44870215 0.15305957 7.14243493 -2 11 C-2.99 11 -3.98 11 -5 11 C-5 11.99 -5 12.98 -5 14 C-5.66 14 -6.32 14 -7 14 C-7 14.99 -7 15.98 -7 17 C-7.66 17 -8.32 17 -9 17 C-9.33 18.98 -9.66 20.96 -10 23 C-10.99 23 -11.98 23 -13 23 C-11.73450827 19.6487836 -10.29812102 16.63101496 -8.43359375 13.57421875 C-7.94826172 12.77822266 -7.46292969 11.98222656 -6.96289062 11.16210938 C-6.45951172 10.34548828 -5.95613281 9.52886719 -5.4375 8.6875 C-4.93025391 7.85154297 -4.42300781 7.01558594 -3.90039062 6.15429688 C-1.09345099 1.57573356 -1.09345099 1.57573356 0 0 Z " fill="#1948E0" transform="translate(256,395)"/>
<path d="M0 0 C0.66 0.33 1.32 0.66 2 1 C0.35 2.65 -1.3 4.3 -3 6 C1.455 6.99 1.455 6.99 6 8 C6 8.66 6 9.32 6 10 C7.32 10 8.64 10 10 10 C10 10.66 10 11.32 10 12 C11.32 12 12.64 12 14 12 C14 12.66 14 13.32 14 14 C5.82602049 11.41874331 -2.06640834 8.22988119 -10 5 C-6.76527494 2.84351662 -3.62848922 1.38542316 0 0 Z " fill="#1C47D3" transform="translate(390,613)"/>
<path d="M0 0 C0 3.57537363 -0.80754549 4.54843258 -2.80859375 7.44921875 C-3.39060547 8.29677734 -3.97261719 9.14433594 -4.57226562 10.01757812 C-5.18779297 10.89865234 -5.80332031 11.77972656 -6.4375 12.6875 C-7.35499023 14.02651367 -7.35499023 14.02651367 -8.29101562 15.39257812 C-11.62608169 20.21644717 -11.62608169 20.21644717 -13 22 C-13.33 22 -13.66 22 -14 22 C-14 20.35 -14 18.7 -14 17 C-12.68 16.34 -11.36 15.68 -10 15 C-10 14.01 -10 13.02 -10 12 C-9.34 12 -8.68 12 -8 12 C-8 11.01 -8 10.02 -8 9 C-7.34 9 -6.68 9 -6 9 C-6.33 8.01 -6.66 7.02 -7 6 C-4.88929795 2.83394693 -3.26460973 1.80412643 0 0 Z " fill="#1948DA" transform="translate(289,385)"/>
<path d="M0 0 C1.57946723 4.00773402 0.36569808 6.95472949 -0.87109375 10.953125 C-1.0722731 11.61334656 -1.27345245 12.27356812 -1.48072815 12.95379639 C-2.12354511 15.05557003 -2.78028789 17.15268838 -3.4375 19.25 C-3.87657721 20.67679865 -4.31473902 22.10387934 -4.75195312 23.53125 C-5.82404442 27.02416502 -6.90866476 30.51304311 -8 34 C-8.33 34 -8.66 34 -9 34 C-9.04254356 32.00045254 -9.04080783 29.99958364 -9 28 C-8.67 27.67 -8.34 27.34 -8 27 C-7.855625 25.96875 -7.71125 24.9375 -7.5625 23.875 C-7.0082083 20.05654608 -6.12585988 16.67780895 -5 13 C-4.34 13 -3.68 13 -3 13 C-2.814375 11.453125 -2.814375 11.453125 -2.625 9.875 C-2.06110186 6.37883154 -1.21317941 3.31602373 0 0 Z " fill="#1D4AD5" transform="translate(590,658)"/>
<path d="M0 0 C2.97 0 5.94 0 9 0 C3.9773852 2.5113074 -1.08510316 3.76867685 -6.5 5.1875 C-7.54542969 5.47302734 -8.59085938 5.75855469 -9.66796875 6.05273438 C-11.17810547 6.45008789 -11.17810547 6.45008789 -12.71875 6.85546875 C-13.63591797 7.09934326 -14.55308594 7.34321777 -15.49804688 7.59448242 C-18.05337496 8.00865103 -19.57474075 7.83004852 -22 7 C-14.71428571 3.57142857 -14.71428571 3.57142857 -10 4 C-10 3.34 -10 2.68 -10 2 C-6.7 2 -3.4 2 0 2 C0 1.34 0 0.68 0 0 Z " fill="#1E4AD6" transform="translate(538,217)"/>
<path d="M0 0 C0.66 0 1.32 0 2 0 C2 0.66 2 1.32 2 2 C1.01 2.495 1.01 2.495 0 3 C-0.6496875 4.2065625 -0.6496875 4.2065625 -1.3125 5.4375 C-3.32723734 8.49691596 -4.69228609 8.67691444 -8 10 C-8.4125 10.804375 -8.825 11.60875 -9.25 12.4375 C-11.89713702 16.31366492 -15.59544516 16.86423429 -20 18 C-16.29280982 14.18152456 -12.40120767 10.71589767 -8.3125 7.3125 C-4.04600191 3.77921854 -4.04600191 3.77921854 0 0 Z " fill="#1748D7" transform="translate(926,965)"/>
<path d="M0 0 C0 3.98734393 -1.19683009 6.45583845 -3 10 C-4.62626404 11.38232443 -6.2925002 12.71937515 -8 14 C-9.03789581 15.64333504 -10.03567924 17.31243867 -11 19 C-12.60869281 21.05582193 -14.29656581 23.02033324 -16 25 C-16 21.57590927 -15.45774568 20.86873766 -13.515625 18.1640625 C-12.99226563 17.42929687 -12.46890625 16.69453125 -11.9296875 15.9375 C-11.09824219 14.7928125 -11.09824219 14.7928125 -10.25 13.625 C-9.71117187 12.86960937 -9.17234375 12.11421875 -8.6171875 11.3359375 C-5.84614285 7.46999229 -3.01880785 3.67825617 0 0 Z " fill="#EBFBFF" transform="translate(298,375)"/>
<path d="M0 0 C6.56989247 0.75806452 6.56989247 0.75806452 9 2.125 C12.10362101 3.48283419 14.75732526 2.6235913 18 2 C17.67 3.65 17.34 5.3 17 7 C17.66 7 18.32 7 19 7 C19 7.66 19 8.32 19 9 C14.53202662 7.60121198 10.36177921 5.86369228 6.125 3.875 C4.97257812 3.33617187 3.82015625 2.79734375 2.6328125 2.2421875 C1.76398438 1.83226562 0.89515625 1.42234375 0 1 C0 0.67 0 0.34 0 0 Z " fill="#1B48E1" transform="translate(437,1048)"/>
<path d="M0 0 C1.1446875 0.12375 1.1446875 0.12375 2.3125 0.25 C-0.75872864 5.28681497 -4.41666666 9.19510767 -8.6875 13.25 C-9.0175 12.26 -9.3475 11.27 -9.6875 10.25 C-8.6975 9.92 -7.7075 9.59 -6.6875 9.25 C-6.584375 8.5075 -6.48125 7.765 -6.375 7 C-5.35737293 2.92949173 -4.42862288 0.41196492 0 0 Z " fill="#1646E5" transform="translate(981.6875,938.75)"/>
<path d="M0 0 C0.8125 1.6875 0.8125 1.6875 1 4 C-1.1484375 6.3984375 -1.1484375 6.3984375 -4 9 C-5.56470737 10.85581571 -7.10669553 12.73103257 -8.625 14.625 C-10.97602325 17.5537491 -13.27355727 20.41248428 -16 23 C-16.66 22.67 -17.32 22.34 -18 22 C-17.45472656 21.41734375 -16.90945313 20.8346875 -16.34765625 20.234375 C-10.41807139 13.78785198 -5.14328628 7.07657828 0 0 Z " fill="#E6F5FE" transform="translate(1006,912)"/>
<path d="M0 0 C0.66 0 1.32 0 2 0 C2.19335938 0.55429687 2.38671875 1.10859375 2.5859375 1.6796875 C2.97652344 2.76636719 2.97652344 2.76636719 3.375 3.875 C3.75785156 4.95394531 3.75785156 4.95394531 4.1484375 6.0546875 C4.93877783 8.18157994 4.93877783 8.18157994 7 10 C7.40047444 12.32275177 7.7397104 14.65739357 8 17 C8.66 17 9.32 17 10 17 C10.66 20.3 11.32 23.6 12 27 C9.63520022 23.84693362 8.24123393 21.60522602 6.73828125 18.0859375 C6.34189453 17.16039062 5.94550781 16.23484375 5.53710938 15.28125 C4.93092773 13.84265625 4.93092773 13.84265625 4.3125 12.375 C3.89677734 11.40820312 3.48105469 10.44140625 3.05273438 9.4453125 C0 2.26712592 0 2.26712592 0 0 Z " fill="#204AD5" transform="translate(1031,452)"/>
<path d="M0 0 C-3.40024603 1.97862727 -6.56330661 2.56066663 -10.4375 3.125 C-12.10619141 3.37636719 -12.10619141 3.37636719 -13.80859375 3.6328125 C-16.5808915 3.95177944 -19.2144227 4.07289361 -22 4 C-22.33 4.99 -22.66 5.98 -23 7 C-25.4375 6.625 -25.4375 6.625 -28 6 C-28.33 5.34 -28.66 4.68 -29 4 C-24.9195446 3.13167552 -20.8352803 2.28280772 -16.75 1.4375 C-15.59113281 1.19064453 -14.43226563 0.94378906 -13.23828125 0.68945312 C-12.12324219 0.46064453 -11.00820313 0.23183594 -9.859375 -0.00390625 C-8.83295898 -0.21861572 -7.80654297 -0.4333252 -6.74902344 -0.65454102 C-4.1069232 -0.98656338 -2.49107461 -0.85728404 0 0 Z " fill="#EBFBFE" transform="translate(747,1085)"/>
<path d="M0 0 C-4.86821613 2.67396024 -10.11455686 3.52209276 -15.5 4.6875 C-16.54542969 4.92533203 -17.59085938 5.16316406 -18.66796875 5.40820312 C-19.67472656 5.62798828 -20.68148437 5.84777344 -21.71875 6.07421875 C-22.63591797 6.27619873 -23.55308594 6.47817871 -24.49804688 6.6862793 C-27.01353992 7.00169777 -28.61605948 6.79638949 -31 6 C-25.10261508 3.70657253 -20.33393082 2.65451286 -14 3 C-14 2.34 -14 1.68 -14 1 C-4.58997722 -0.14806378 -4.58997722 -0.14806378 0 0 Z " fill="#2049D1" transform="translate(751,1082)"/>
<path d="M0 0 C9.11588896 2.65189497 17.4774059 6.8805831 26 11 C26 11.33 26 11.66 26 12 C24.35 12 22.7 12 21 12 C21 11.34 21 10.68 21 10 C19.68 10 18.36 10 17 10 C17 9.34 17 8.68 17 8 C15.35 8 13.7 8 12 8 C12 7.34 12 6.68 12 6 C11.319375 5.9175 10.63875 5.835 9.9375 5.75 C6.1253093 4.77667472 3.35929671 3.04192545 0 1 C0 0.67 0 0.34 0 0 Z " fill="#1A47D4" transform="translate(438,683)"/>
<path d="M0 0 C0 0.66 0 1.32 0 2 C-1.32 2 -2.64 2 -4 2 C-4 2.66 -4 3.32 -4 4 C-4.639375 4.12375 -5.27875 4.2475 -5.9375 4.375 C-6.618125 4.58125 -7.29875 4.7875 -8 5 C-8.33 5.66 -8.66 6.32 -9 7 C-7.68 7.33 -6.36 7.66 -5 8 C-8.21956783 9.07318928 -8.90421689 8.870689 -12 8 C-12.99 8 -13.98 8 -15 8 C-16.33981486 7.6937566 -17.67511887 7.36548445 -19 7 C-16.39869373 5.8265684 -13.79431492 4.66107492 -11.1875 3.5 C-10.44951172 3.16613281 -9.71152344 2.83226562 -8.95117188 2.48828125 C-8.23896484 2.17246094 -7.52675781 1.85664062 -6.79296875 1.53125 C-6.1383667 1.23798828 -5.48376465 0.94472656 -4.80932617 0.64257812 C-3 0 -3 0 0 0 Z " fill="#1947DE" transform="translate(444,591)"/>
<path d="M0 0 C0.80179688 0.00451172 1.60359375 0.00902344 2.4296875 0.01367188 C4.41149006 0.02546832 6.39325433 0.04340395 8.375 0.0625 C8.705 0.7225 9.035 1.3825 9.375 2.0625 C6.66783758 2.96488747 5.13723232 3.18101302 2.36328125 3.16015625 C1.22729492 3.15532227 1.22729492 3.15532227 0.06835938 3.15039062 C-0.71732422 3.14201172 -1.50300781 3.13363281 -2.3125 3.125 C-3.10978516 3.12048828 -3.90707031 3.11597656 -4.72851562 3.11132812 C-6.69404257 3.0995585 -8.65953085 3.08162348 -10.625 3.0625 C-10.625 2.4025 -10.625 1.7425 -10.625 1.0625 C-7.31505287 -0.59247356 -3.63377 -0.03834335 0 0 Z " fill="#3865F2" transform="translate(640.625,204.9375)"/>
<path d="M0 0 C0.66 0.33 1.32 0.66 2 1 C1.67 1.99 1.34 2.98 1 4 C-2.5625 5.1875 -2.5625 5.1875 -6 6 C-6 6.66 -6 7.32 -6 8 C-11.75 11 -11.75 11 -14 11 C-14.33 11.99 -14.66 12.98 -15 14 C-16.32 13.67 -17.64 13.34 -19 13 C-12.73 8.71 -6.46 4.42 0 0 Z " fill="#1F4CD5" transform="translate(888,995)"/>
<path d="M0 0 C0.66 0 1.32 0 2 0 C1.67 0.99 1.34 1.98 1 3 C0.91505272 5.65894107 0.88405204 8.29085377 0.90234375 10.94921875 C0.9037587 11.72183548 0.90517365 12.49445221 0.90663147 13.29048157 C0.91222534 15.75619389 0.92477667 18.22181515 0.9375 20.6875 C0.94251579 22.36002473 0.94707856 24.03255088 0.95117188 25.70507812 C0.96219276 29.80342046 0.97945316 33.90169479 1 38 C0.34 38 -0.32 38 -1 38 C-1.02464928 32.74894558 -1.04283568 27.49792455 -1.05493164 22.24682617 C-1.05997218 20.45905979 -1.06680454 18.67129755 -1.07543945 16.88354492 C-1.0875173 14.31948832 -1.09323094 11.75548603 -1.09765625 9.19140625 C-1.10281754 8.3872377 -1.10797882 7.58306915 -1.11329651 6.75453186 C-1.11349215 4.83598285 -1.06201983 2.91754632 -1 1 C-0.67 0.67 -0.34 0.34 0 0 Z " fill="#EDFBFF" transform="translate(335,597)"/>
<path d="M0 0 C1.32 0 2.64 0 4 0 C4.226875 0.639375 4.45375 1.27875 4.6875 1.9375 C5.85250896 4.27193661 5.85250896 4.27193661 8.625 4.75 C9.40875 4.8325 10.1925 4.915 11 5 C11 5.66 11 6.32 11 7 C11.99 8.485 11.99 8.485 13 10 C12.625 12.1875 12.625 12.1875 12 14 C9.99699451 11.85690336 7.99750256 9.71071503 6 7.5625 C5.42765625 6.95083984 4.8553125 6.33917969 4.265625 5.70898438 C0 1.11328125 0 1.11328125 0 0 Z " fill="#1847E2" transform="translate(298,941)"/>
<path d="M0 0 C5.99932374 1.8331267 11.44920563 4.07321751 17 7 C17 7.33 17 7.66 17 8 C15.35 8 13.7 8 12 8 C12 7.34 12 6.68 12 6 C8.7 6 5.4 6 2 6 C2 5.01 2 4.02 2 3 C1.34 2.67 0.68 2.34 0 2 C0 1.34 0 0.68 0 0 Z " fill="#1548E1" transform="translate(395,663)"/>
<path d="M0 0 C0.87840996 3.09720845 0.99435406 4.90645403 0 8 C-0.66 8 -1.32 8 -2 8 C-2.1546875 9.5778125 -2.1546875 9.5778125 -2.3125 11.1875 C-2.99456403 14.96985505 -3.96555638 16.82626796 -6 20 C-6.71143088 21.98451771 -7.38991336 23.98202112 -8 26 C-8.66 26 -9.32 26 -10 26 C-7.24892128 17.09945121 -3.59701637 8.58356509 0 0 Z " fill="#E7F8FE" transform="translate(246,460)"/>
<path d="M0 0 C1.32 0.33 2.64 0.66 4 1 C-1.61 4.96 -7.22 8.92 -13 13 C-13.66 12.01 -14.32 11.02 -15 10 C-14.43410156 9.73445313 -13.86820312 9.46890625 -13.28515625 9.1953125 C-12.55167969 8.84210938 -11.81820313 8.48890625 -11.0625 8.125 C-10.33160156 7.77695312 -9.60070312 7.42890625 -8.84765625 7.0703125 C-6.83667541 6.1315023 -6.83667541 6.1315023 -6 4 C-5.01 4 -4.02 4 -3 4 C-3 3.34 -3 2.68 -3 2 C-2.01 2 -1.02 2 0 2 C0 1.34 0 0.68 0 0 Z " fill="#1947D8" transform="translate(394,281)"/>
<path d="M0 0 C1.27673227 3.59705439 0.70375319 5.83025309 -0.43359375 9.421875 C-0.75263672 10.44667969 -1.07167969 11.47148438 -1.40039062 12.52734375 C-1.74263672 13.59082031 -2.08488281 14.65429688 -2.4375 15.75 C-2.77587891 16.82894531 -3.11425781 17.90789063 -3.46289062 19.01953125 C-4.29954723 21.68269172 -5.14553533 24.34251033 -6 27 C-6.33 27 -6.66 27 -7 27 C-7.21192221 21.80790596 -6.5912689 17.873261 -5 13 C-4.34 13 -3.68 13 -3 13 C-2.814375 11.453125 -2.814375 11.453125 -2.625 9.875 C-2.06110186 6.37883154 -1.21317941 3.31602373 0 0 Z " fill="#1C49D0" transform="translate(600,624)"/>
<path d="M0 0 C-2.64738916 1.4606285 -3.89448334 2 -7 2 C-7 2.66 -7 3.32 -7 4 C-12.75470263 6.59889796 -18.80634538 8.71779993 -25 7 C-21.21261434 5.63364215 -17.41948537 4.28400281 -13.625 2.9375 C-12.54476563 2.54755859 -11.46453125 2.15761719 -10.3515625 1.75585938 C-9.3203125 1.39169922 -8.2890625 1.02753906 -7.2265625 0.65234375 C-6.27346191 0.31195068 -5.32036133 -0.02844238 -4.33837891 -0.37915039 C-2 -1 -2 -1 0 0 Z " fill="#1C48D3" transform="translate(503,207)"/>
<path d="M0 0 C3.48721089 1.16240363 3.7019361 1.74538871 5.4375 4.8125 C6.91034967 7.30569733 8.12321563 9.12321563 10.1875 11.1875 C13.20666646 14.20666646 14.09242597 17.91591686 15 22 C11.04687693 18.47996967 8.53810126 14.34962879 5.8125 9.875 C5.36197266 9.14667969 4.91144531 8.41835938 4.44726562 7.66796875 C1.20076885 2.4015377 1.20076885 2.4015377 0 0 Z " fill="#E5F7FF" transform="translate(1017,384)"/>
<path d="M0 0 C0.33 0.99 0.66 1.98 1 3 C-2.49570604 9.03699234 -7.59748793 13.70004141 -13 18 C-13.66 17.67 -14.32 17.34 -15 17 C-14.61666504 16.59160889 -14.23333008 16.18321777 -13.83837891 15.76245117 C-12.09836183 13.90620454 -10.36165448 12.04689272 -8.625 10.1875 C-8.02171875 9.54490234 -7.4184375 8.90230469 -6.796875 8.24023438 C-6.21679688 7.61826172 -5.63671875 6.99628906 -5.0390625 6.35546875 C-4.23782959 5.49924927 -4.23782959 5.49924927 -3.42041016 4.62573242 C-1.80420447 2.84684396 -1.80420447 2.84684396 0 0 Z " fill="#E9F7FE" transform="translate(323,345)"/>
<path d="M0 0 C-3.28588457 1.53356101 -6.57953739 3.04964438 -9.875 4.5625 C-10.81214844 5.00013672 -11.74929688 5.43777344 -12.71484375 5.88867188 C-13.61074219 6.29794922 -14.50664062 6.70722656 -15.4296875 7.12890625 C-16.25710449 7.51119385 -17.08452148 7.89348145 -17.93701172 8.28735352 C-18.61779785 8.52252686 -19.29858398 8.7577002 -20 9 C-20.66 8.67 -21.32 8.34 -22 8 C-21.01 6.68 -20.02 5.36 -19 4 C-17.35 4.33 -15.7 4.66 -14 5 C-14 4.34 -14 3.68 -14 3 C-12.68 3 -11.36 3 -10 3 C-10 2.34 -10 1.68 -10 1 C-6.16112237 -0.48320272 -3.93795909 -1.22419163 0 0 Z " fill="#1B49D6" transform="translate(422,558)"/>
<path d="M0 0 C4.84015316 1.76534644 9.2835127 4.19536725 13.8125 6.625 C14.60076172 7.04523437 15.38902344 7.46546875 16.20117188 7.8984375 C18.13535326 8.9300009 20.06823983 9.96391172 22 11 C18.23375329 12.25541557 16.62811066 11.37061958 13 10 C13 9.34 13 8.68 13 8 C10.69 7.34 8.38 6.68 6 6 C6 5.34 6 4.68 6 4 C5.195625 3.71125 4.39125 3.4225 3.5625 3.125 C1 2 1 2 0 0 Z " fill="#1E4AD4" transform="translate(422,1015)"/>
<path d="M0 0 C0.33 0.66 0.66 1.32 1 2 C1.66 2.33 2.32 2.66 3 3 C2.401875 3.515625 1.80375 4.03125 1.1875 4.5625 C-1.44918457 7.50051995 -2.51562438 10.35090993 -4 14 C-5.27096138 16.37554236 -6.62727626 18.68057024 -8 21 C-8.66 21 -9.32 21 -10 21 C-8.27502493 16.3970402 -6.0904129 12.06744176 -3.875 7.6875 C-3.50246094 6.94693359 -3.12992188 6.20636719 -2.74609375 5.44335938 C-1.83255194 3.62798783 -0.91652513 1.81386718 0 0 Z " fill="#E5F5FE" transform="translate(1048,843)"/>
<path d="M0 0 C4.54822201 2.40490403 7.77351595 5.5367133 11.3125 9.1875 C11.86228516 9.74630859 12.41207031 10.30511719 12.97851562 10.88085938 C14.32363696 12.24937412 15.66246643 13.62406833 17 15 C14 15 14 15 12.3515625 13.50390625 C11.49691406 12.54291016 11.49691406 12.54291016 10.625 11.5625 C7.88863285 8.68089043 6.14745817 7.12568055 2 7 C2 5.68 2 4.36 2 3 C1.34 2.67 0.68 2.34 0 2 C0 1.34 0 0.68 0 0 Z " fill="#1D45CE" transform="translate(950,307)"/>
<path d="M0 0 C5.83096952 3.10157953 10.86601899 6.85556181 16 11 C10.43973208 11 6.08817592 7.95215393 2 4.375 C0 2 0 2 0 0 Z " fill="#1F48DB" transform="translate(905,270)"/>
<path d="M0 0 C0.33 0 0.66 0 1 0 C1.78620395 8.12410752 -2.16082959 14.8529457 -7 21 C-8 19 -8 19 -7.37915039 17.02880859 C-7.03875732 16.24328613 -6.69836426 15.45776367 -6.34765625 14.6484375 C-5.98349609 13.79765625 -5.61933594 12.946875 -5.24414062 12.0703125 C-4.65922852 10.73613281 -4.65922852 10.73613281 -4.0625 9.375 C-3.48338867 8.02921875 -3.48338867 8.02921875 -2.89257812 6.65625 C-1.93529275 4.43440246 -0.97085723 2.21594292 0 0 Z " fill="#E5F6FD" transform="translate(1064,807)"/>
<path d="M0 0 C0.66 0.33 1.32 0.66 2 1 C-2.26311718 5.12989477 -5.28758534 5.61271765 -11 6 C-11 6.66 -11 7.32 -11 8 C-12.98 8 -14.96 8 -17 8 C-13.78379515 5.85586343 -10.46863154 4.33918454 -6.9375 2.8125 C-6.30005859 2.52697266 -5.66261719 2.24144531 -5.00585938 1.94726562 C-3.36290102 1.23572097 -1.68293027 0.61102673 0 0 Z " fill="#1B45D8" transform="translate(503,565)"/>
<path d="M0 0 C1.32 0.33 2.64 0.66 4 1 C4.1953125 3.05078125 4.390625 5.1015625 4.5859375 7.15234375 C4.72257812 7.76207031 4.85921875 8.37179687 5 9 C5.66 9.33 6.32 9.66 7 10 C6.67 12.31 6.34 14.62 6 17 C4.0990238 14.1485357 3.03734101 11.70289524 1.875 8.5 C1.52179688 7.5409375 1.16859375 6.581875 0.8046875 5.59375 C0 3 0 3 0 0 Z " fill="#1947DC" transform="translate(1047,490)"/>
<path d="M0 0 C-2.7881022 1.5066972 -5.58103958 3.00419804 -8.375 4.5 C-9.1690625 4.92925781 -9.963125 5.35851563 -10.78125 5.80078125 C-11.92207031 6.40986328 -11.92207031 6.40986328 -13.0859375 7.03125 C-13.7876709 7.40830078 -14.4894043 7.78535156 -15.21240234 8.17382812 C-17 9 -17 9 -19 9 C-19 8.34 -19 7.68 -19 7 C-17.5437455 6.32880451 -16.08492133 5.66318193 -14.625 5 C-13.81289063 4.62875 -13.00078125 4.2575 -12.1640625 3.875 C-10 3 -10 3 -8 3 C-8 2.01 -8 1.02 -8 0 C-4.90645403 -0.99435406 -3.09720845 -0.87840996 0 0 Z " fill="#2049D6" transform="translate(868,1036)"/>
<path d="M0 0 C1 3 1 3 0.328125 5.0078125 C-0.02765625 5.70648437 -0.3834375 6.40515625 -0.75 7.125 C-1.26820313 8.18074219 -1.26820313 8.18074219 -1.796875 9.2578125 C-3 11 -3 11 -6 12 C-6 12.99 -6 13.98 -6 15 C-6.99 15.33 -7.98 15.66 -9 16 C-7.56691865 12.04093183 -5.66858051 8.71281819 -3.375 5.1875 C-2.74335937 4.21167969 -2.11171875 3.23585938 -1.4609375 2.23046875 C-0.73777344 1.12638672 -0.73777344 1.12638672 0 0 Z " fill="#1D47D9" transform="translate(1012,862)"/>
<path d="M0 0 C1.00693162 3.12179408 0.97289724 4.98969669 0.00390625 8.109375 C-0.22490234 8.86347656 -0.45371094 9.61757813 -0.68945312 10.39453125 C-0.93630859 11.17183594 -1.18316406 11.94914063 -1.4375 12.75 C-1.68048828 13.54277344 -1.92347656 14.33554687 -2.17382812 15.15234375 C-2.77354195 17.10435346 -3.38558121 19.05256883 -4 21 C-4.95514676 17.92749994 -5.00170571 17.00591313 -4.0625 13.75 C-2.86983422 9.54059137 -2.84758644 6.34378647 -3 2 C-2.01 2 -1.02 2 0 2 C0 1.34 0 0.68 0 0 Z " fill="#1D4AD7" transform="translate(619,559)"/>
<path d="M0 0 C0 4.02450677 -1.1034499 6.45977315 -3 10 C-6.1875 11.9375 -6.1875 11.9375 -9 13 C-7.50923566 9.7173068 -5.61379679 7.06922559 -3.375 4.25 C-2.74335938 3.45078125 -2.11171875 2.6515625 -1.4609375 1.828125 C-0.97882813 1.22484375 -0.49671875 0.6215625 0 0 Z " fill="#1749DF" transform="translate(288,351)"/>
<path d="M0 0 C0.33 1.32 0.66 2.64 1 4 C0.071875 4.12375 0.071875 4.12375 -0.875 4.25 C-3.12684592 4.79252374 -3.12684592 4.79252374 -4.0625 6.75 C-4.5265625 7.86375 -4.5265625 7.86375 -5 9 C-7.45447088 13.7973749 -7.45447088 13.7973749 -10.1875 14.8125 C-10.785625 14.874375 -11.38375 14.93625 -12 15 C-10.38462556 11.10082032 -7.72075127 8.28706228 -4.875 5.25 C-4.40707031 4.74339844 -3.93914062 4.23679687 -3.45703125 3.71484375 C-2.30873459 2.47280859 -1.15491328 1.23588506 0 0 Z " fill="#1E49DC" transform="translate(309,327)"/>
<path d="M0 0 C0.33 0.99 0.66 1.98 1 3 C-0.3125 5.1875 -0.3125 5.1875 -2 7 C-2.66 7 -3.32 7 -4 7 C-4.2475 7.5775 -4.495 8.155 -4.75 8.75 C-6.16683317 11.3002997 -7.87627537 13.01785701 -10 15 C-10.66 14.67 -11.32 14.34 -12 14 C-11.38511719 13.32453125 -10.77023437 12.6490625 -10.13671875 11.953125 C-9.32847656 11.06109375 -8.52023437 10.1690625 -7.6875 9.25 C-6.88699219 8.36828125 -6.08648438 7.4865625 -5.26171875 6.578125 C-3.39083089 4.44550672 -1.65915714 2.29812057 0 0 Z " fill="#E7F8FE" transform="translate(982,941)"/>
<path d="M0 0 C0.99 0.33 1.98 0.66 3 1 C3.33 1.99 3.66 2.98 4 4 C4.99 4.33 5.98 4.66 7 5 C8.0625 6.8125 8.0625 6.8125 9 9 C9.391875 9.70125 9.78375 10.4025 10.1875 11.125 C10.455625 11.74375 10.72375 12.3625 11 13 C10.67 13.66 10.34 14.32 10 15 C8.32742872 12.87941855 6.66184582 10.75395924 5 8.625 C4.28457031 7.72007812 4.28457031 7.72007812 3.5546875 6.796875 C0 2.2265625 0 2.2265625 0 0 Z " fill="#1E47D8" transform="translate(268,902)"/>
<path d="M0 0 C0.70703125 1.609375 0.70703125 1.609375 1 4 C-0.36328125 7.015625 -0.36328125 7.015625 -2.3125 10.25 C-3.26576172 11.86648438 -3.26576172 11.86648438 -4.23828125 13.515625 C-4.81964844 14.33546875 -5.40101563 15.1553125 -6 16 C-6.66 16 -7.32 16 -8 16 C-6.57250019 12.20950293 -4.83763458 8.72877544 -2.875 5.1875 C-2.33617187 4.21167969 -1.79734375 3.23585938 -1.2421875 2.23046875 C-0.83226562 1.49441406 -0.42234375 0.75835937 0 0 Z " fill="#EAF9FF" transform="translate(266,422)"/>
<path d="M0 0 C0.8125 1.6875 0.8125 1.6875 1 4 C-2.17423736 8.03993846 -5.05770013 9.73569073 -10 11 C-6.79239749 7.19364503 -3.59253891 3.45436433 0 0 Z " fill="#1746DD" transform="translate(323,313)"/>
<path d="M0 0 C1.0625 1.8125 1.0625 1.8125 2 4 C1.67 4.99 1.34 5.98 1 7 C-0.32 7 -1.64 7 -3 7 C-3.103125 7.639375 -3.20625 8.27875 -3.3125 8.9375 C-3.539375 9.618125 -3.76625 10.29875 -4 11 C-4.99 11.33 -5.98 11.66 -7 12 C-5.44298069 7.32894208 -2.91552627 3.91294315 0 0 Z " fill="#1A4ADB" transform="translate(1002,878)"/>
<path d="M0 0 C0.66 0.33 1.32 0.66 2 1 C2 2.32 2 3.64 2 5 C-0.64738916 6.4606285 -1.89448334 7 -5 7 C-5 7.66 -5 8.32 -5 9 C-5.66 8.67 -6.32 8.34 -7 8 C-4.69 5.36 -2.38 2.72 0 0 Z " fill="#1448E1" transform="translate(316,471)"/>
<path d="M0 0 C0.33 0 0.66 0 1 0 C1.02688151 1.64574566 1.04634123 3.29161413 1.0625 4.9375 C1.07410156 5.85402344 1.08570313 6.77054688 1.09765625 7.71484375 C1 10 1 10 0 11 C-0.36760731 13.32817964 -0.70241581 15.6618385 -1 18 C-1.66 18 -2.32 18 -3 18 C-2.41509121 11.85845775 -1.45933748 5.99320151 0 0 Z " fill="#1E49D4" transform="translate(1064,728)"/>
<path d="M0 0 C0.33 0 0.66 0 1 0 C1.27672202 1.91299138 1.52042815 3.83077936 1.75 5.75 C1.88921875 6.81734375 2.0284375 7.8846875 2.171875 8.984375 C2 12 2 12 -2 16 C-1.34 10.72 -0.68 5.44 0 0 Z " fill="#EDFCFE" transform="translate(1090,712)"/>
<path d="M0 0 C0 0.99 0 1.98 0 3 C-0.639375 3.268125 -1.27875 3.53625 -1.9375 3.8125 C-4.33131686 4.88667752 -4.33131686 4.88667752 -5 8 C-5.66 8 -6.32 8 -7 8 C-7.66 9.32 -8.32 10.64 -9 12 C-9.99 11.67 -10.98 11.34 -12 11 C-8.17426612 7.07503959 -4.38002676 3.31820209 0 0 Z " fill="#1E4ADA" transform="translate(336,301)"/>
<path d="M0 0 C-2.119212 1.36405618 -4.24448118 2.71631775 -6.375 4.0625 C-6.97828125 4.45244141 -7.5815625 4.84238281 -8.203125 5.24414062 C-9.76492557 6.22460432 -11.37992214 7.11916075 -13 8 C-13.66 7.67 -14.32 7.34 -15 7 C-11.30105241 2.68456114 -5.76210785 -1.92070262 0 0 Z " fill="#E7FBFE" transform="translate(408,249)"/>
<path d="M0 0 C1.32 0 2.64 0 4 0 C2.22054913 4.04420651 -0.39529673 7.46078487 -3 11 C-3.33 9.68 -3.66 8.36 -4 7 C-3.34 7 -2.68 7 -2 7 C-1.855625 6.401875 -1.71125 5.80375 -1.5625 5.1875 C-1.1127561 3.43849596 -0.57107659 1.71322977 0 0 Z " fill="#1746DC" transform="translate(1006,906)"/>
<path d="M0 0 C1.58624235 0.42683239 3.1689098 0.86696158 4.75 1.3125 C6.07257813 1.67794922 6.07257813 1.67794922 7.421875 2.05078125 C10.05772505 3.02125331 11.85407326 4.21005644 14 6 C12.35 6 10.7 6 9 6 C9 5.34 9 4.68 9 4 C7.88625 4.020625 6.7725 4.04125 5.625 4.0625 C2 4 2 4 0 3 C0 2.01 0 1.02 0 0 Z " fill="#EAF9FE" transform="translate(397,625)"/>
<path d="M0 0 C0.66 0 1.32 0 2 0 C0.62712658 3.69876091 -1.06355453 6.9514476 -3.125 10.3125 C-3.66382813 11.19550781 -4.20265625 12.07851563 -4.7578125 12.98828125 C-5.37269531 13.98408203 -5.37269531 13.98408203 -6 15 C-7 12 -7 12 -5.8203125 9.3359375 C-4.98113281 7.87027344 -4.98113281 7.87027344 -4.125 6.375 C-3.57070312 5.39273437 -3.01640625 4.41046875 -2.4453125 3.3984375 C-1 1 -1 1 0 0 Z " fill="#E6FAFE" transform="translate(255,393)"/>
<path d="M0 0 C0 0.66 0 1.32 0 2 C-5.12919186 4.10428384 -9.5610835 4.21755666 -15 4 C-10.11470435 1.4502185 -5.54842611 0 0 0 Z " fill="#1946D6" transform="translate(761,1057)"/>
<path d="M0 0 C0.75 1.6875 0.75 1.6875 1 4 C-0.80450953 6.87384851 -2.01312923 8.64363 -5.25 9.8125 C-5.8275 9.874375 -6.405 9.93625 -7 10 C-4.93992341 6.39486597 -2.6486859 3.19668988 0 0 Z " fill="#1B4BDF" transform="translate(982,906)"/>
<path d="M0 0 C-0.99 0.33 -1.98 0.66 -3 1 C-2.67 1.99 -2.34 2.98 -2 4 C-2.86625 3.979375 -3.7325 3.95875 -4.625 3.9375 C-7.85903648 3.99738956 -10.82799897 4.39580933 -14 5 C-11.75043698 2.75043698 -9.93676737 1.99489035 -7 0.8125 C-6.113125 0.44769531 -5.22625 0.08289063 -4.3125 -0.29296875 C-2 -1 -2 -1 0 0 Z " fill="#1845DB" transform="translate(425,600)"/>
<path d="M0 0 C0.66 0.33 1.32 0.66 2 1 C-2.625 4 -2.625 4 -6 4 C-6.33 4.99 -6.66 5.98 -7 7 C-9.31 7 -11.62 7 -14 7 C-11.19665157 5.13110105 -8.48722906 3.72975092 -5.4375 2.3125 C-4.46683594 1.85488281 -3.49617188 1.39726563 -2.49609375 0.92578125 C-1.67238281 0.62027344 -0.84867187 0.31476562 0 0 Z " fill="#EAF9FF" transform="translate(457,541)"/>
<path d="M0 0 C1.65 0 3.3 0 5 0 C4.67 0.99 4.34 1.98 4 3 C4.99 3 5.98 3 7 3 C7.33 4.32 7.66 5.64 8 7 C8.66 7 9.32 7 10 7 C9.67 7.66 9.34 8.32 9 9 C7.68412059 7.87895467 6.37239647 6.75303035 5.0625 5.625 C4.33160156 4.99851562 3.60070312 4.37203125 2.84765625 3.7265625 C1 2 1 2 0 0 Z " fill="#1C49DC" transform="translate(333,976)"/>
<path d="M0 0 C2 3.75 2 3.75 2 6 C1.01 6 0.02 6 -1 6 C-1.66 8.31 -2.32 10.62 -3 13 C-3.66 13 -4.32 13 -5 13 C-4.54554036 11.58208592 -4.08625056 10.16571954 -3.625 8.75 C-3.24214844 7.56664062 -3.24214844 7.56664062 -2.8515625 6.359375 C-2.04826333 4.13372042 -1.10288338 2.09068328 0 0 Z " fill="#1A46D9" transform="translate(226,450)"/>
<path d="M0 0 C0.33 0.66 0.66 1.32 1 2 C-0.9428261 6.74913047 -3.65005404 10.19735864 -7 14 C-7.33 13.34 -7.66 12.68 -8 12 C-5.36 8.04 -2.72 4.08 0 0 Z " fill="#E9F9FE" transform="translate(280,400)"/>
<path d="M0 0 C1.32 0.66 2.64 1.32 4 2 C0.535 4.97 0.535 4.97 -3 8 C-3.33 6.68 -3.66 5.36 -4 4 C-3.01 3.67 -2.02 3.34 -1 3 C-0.67 2.01 -0.34 1.02 0 0 Z " fill="#1A45E8" transform="translate(318,346)"/>
<path d="M0 0 C-3.96 3.465 -3.96 3.465 -8 7 C-8.66 6.01 -9.32 5.02 -10 4 C-8.68 3.67 -7.36 3.34 -6 3 C-6 2.01 -6 1.02 -6 0 C-2.25 -1.125 -2.25 -1.125 0 0 Z " fill="#1847DE" transform="translate(368,304)"/>
<path d="M0 0 C0 0.66 0 1.32 0 2 C-3.58757062 5.58757062 -3.58757062 5.58757062 -6 7 C-8.875 6.8125 -8.875 6.8125 -11 6 C-3.8 0 -3.8 0 0 0 Z " fill="#1749DC" transform="translate(848,1021)"/>
<path d="M0 0 C0.33 0.66 0.66 1.32 1 2 C0.109375 3.9453125 0.109375 3.9453125 -1.25 6.125 C-1.68828125 6.84945312 -2.1265625 7.57390625 -2.578125 8.3203125 C-3.04734375 8.87460937 -3.5165625 9.42890625 -4 10 C-4.99 10 -5.98 10 -7 10 C-5.33248852 6.05860922 -2.77289351 3.2107188 0 0 Z " fill="#1C4BDE" transform="translate(972,918)"/>
<path d="M0 0 C0.66 1.32 1.32 2.64 2 4 C-0.57784846 6.64752004 -2.91648098 8.94432065 -6 11 C-4.54955729 6.89041233 -2.48889248 3.56741255 0 0 Z " fill="#F0FBFE" transform="translate(1029,878)"/>
<path d="M0 0 C0.33 0.66 0.66 1.32 1 2 C1.66 2.33 2.32 2.66 3 3 C0.03 5.475 0.03 5.475 -3 8 C-3.33 6.35 -3.66 4.7 -4 3 C-2.68 2.67 -1.36 2.34 0 2 C0 1.34 0 0.68 0 0 Z " fill="#1A46EA" transform="translate(350,314)"/>
<path d="M0 0 C0.66 0.33 1.32 0.66 2 1 C-2.18461538 6.78461538 -2.18461538 6.78461538 -6.3125 7.875 C-7.6428125 7.936875 -7.6428125 7.936875 -9 8 C-6.14723863 5.06799526 -3.34920216 2.35684596 0 0 Z " fill="#1948DE" transform="translate(381,265)"/>
<path d="M0 0 C1.4540625 0.0309375 1.4540625 0.0309375 2.9375 0.0625 C0.44797079 2.72985273 -1.69658134 4.61996343 -5.0625 6.0625 C-3.98897059 0.08140756 -3.98897059 0.08140756 0 0 Z " fill="#1A4ADF" transform="translate(913.0625,1002.9375)"/>
<path d="M0 0 C4.63720719 3.27530896 8.68542782 6.30435607 12 11 C8.81293058 9.56438314 6.37830895 7.79733671 3.75 5.5 C3.04359375 4.8915625 2.3371875 4.283125 1.609375 3.65625 C0 2 0 2 0 0 Z " fill="#E7FAFF" transform="translate(327,972)"/>
<path d="M0 0 C2.475 0.495 2.475 0.495 5 1 C5.33 3.31 5.66 5.62 6 8 C1.125 3.375 1.125 3.375 0 0 Z " fill="#1A4AE1" transform="translate(279,917)"/>
<path d="M0 0 C3.38276494 0.60406517 5.34321071 1.85742799 8 4 C8.99 4.66 9.98 5.32 11 6 C2.42857143 5.28571429 2.42857143 5.28571429 -1 2 C-0.67 1.34 -0.34 0.68 0 0 Z " fill="#E5F6FE" transform="translate(379,616)"/>
<path d="M0 0 C0.99 0.33 1.98 0.66 3 1 C1.25 6.75 1.25 6.75 -1 9 C-1.625 6.1875 -1.625 6.1875 -2 3 C-1.34 2.01 -0.68 1.02 0 0 Z " fill="#1246E3" transform="translate(250,445)"/>
<path d="M0 0 C0 3.44360632 -0.79591532 4.74795392 -2.5 7.6875 C-2.9640625 8.49574219 -3.428125 9.30398438 -3.90625 10.13671875 C-4.2671875 10.75160156 -4.628125 11.36648438 -5 12 C-5.33 12 -5.66 12 -6 12 C-6 10.02 -6 8.04 -6 6 C-5.01 6 -4.02 6 -3 6 C-3 4.68 -3 3.36 -3 2 C-2.01 1.34 -1.02 0.68 0 0 Z " fill="#1D49D8" transform="translate(274,407)"/>
<path d="M0 0 C1.67542976 0.28604898 3.34385343 0.61781233 5 1 C3.70700306 3.88437779 2.34058637 5.87219421 0 8 C-0.38063221 5.6739143 -0.71269945 3.33944736 -1 1 C-0.67 0.67 -0.34 0.34 0 0 Z " fill="#1548E3" transform="translate(291,376)"/>
<path d="M0 0 C2.31 0.33 4.62 0.66 7 1 C7 1.66 7 2.32 7 3 C7.66 3 8.32 3 9 3 C9 3.66 9 4.32 9 5 C9.99 5.33 10.98 5.66 12 6 C11.01 6.495 11.01 6.495 10 7 C7.6171875 5.8203125 7.6171875 5.8203125 4.875 4.125 C3.96492187 3.57070313 3.05484375 3.01640625 2.1171875 2.4453125 C1.41851563 1.96835937 0.71984375 1.49140625 0 1 C0 0.67 0 0.34 0 0 Z " fill="#224CDB" transform="translate(857,265)"/>
<path d="M0 0 C1.65 0 3.3 0 5 0 C-3.44827586 7 -3.44827586 7 -7 7 C-7 6.01 -7 5.02 -7 4 C-6.030625 3.71125 -5.06125 3.4225 -4.0625 3.125 C-0.89335797 2.35785318 -0.89335797 2.35785318 0 0 Z " fill="#1E49DA" transform="translate(419,265)"/>
<path d="M0 0 C-5.84560277 2.63463787 -10.54487966 4.56131481 -17 4 C-14.22246623 2.55441992 -11.45460092 1.34964587 -8.5 0.3125 C-7.7471875 0.04050781 -6.994375 -0.23148438 -6.21875 -0.51171875 C-3.76402507 -1.0519311 -2.35576662 -0.79774824 0 0 Z " fill="#E4F6FE" transform="translate(783,1075)"/>
<path d="M0 0 C3.0534135 -0.29359745 5.95743422 -0.4451258 9 0 C11.5625 2.5 11.5625 2.5 13 5 C11.39402675 4.54803755 9.79027492 4.08817673 8.1875 3.625 C6.84751953 3.24214844 6.84751953 3.24214844 5.48046875 2.8515625 C3 2 3 2 0 0 Z " fill="#E7F5FD" transform="translate(479,1042)"/>
<path d="M0 0 C-1.93232821 0.86580287 -3.87107194 1.71729941 -5.8125 2.5625 C-6.89144531 3.03816406 -7.97039063 3.51382812 -9.08203125 4.00390625 C-12 5 -12 5 -15 4 C-5.69800321 -1.54542116 -5.69800321 -1.54542116 0 0 Z " fill="#E8F9FF" transform="translate(816,1037)"/>
<path d="M0 0 C3 0 3 0 7 1 C4.69 2.65 2.38 4.3 0 6 C-0.66 5.67 -1.32 5.34 -2 5 C-1.34 3.35 -0.68 1.7 0 0 Z " fill="#1A48DF" transform="translate(898,1011)"/>
<path d="M0 0 C0.33 0.66 0.66 1.32 1 2 C1.66 2.33 2.32 2.66 3 3 C0.03 5.475 0.03 5.475 -3 8 C-3.36923077 3.44615385 -3.36923077 3.44615385 -1.5 1.1875 C-1.005 0.795625 -0.51 0.40375 0 0 Z " fill="#1647E7" transform="translate(945,974)"/>
<path d="M0 0 C2.96052484 3.36423277 3.92289822 6.69159287 5 11 C3.33333333 9.33333333 1.66666667 7.66666667 0 6 C-0.66 6 -1.32 6 -2 6 C-2 5.34 -2 4.68 -2 4 C-1.34 4 -0.68 4 0 4 C0 2.68 0 1.36 0 0 Z " fill="#1B48DF" transform="translate(1053,448)"/>
<path d="M0 0 C0.66 0.33 1.32 0.66 2 1 C-1.33562767 5.51290803 -3.33289301 7.68206814 -9 9 C-6 6 -3 3 0 0 Z " fill="#1C48DB" transform="translate(353,286)"/>
<path d="M0 0 C0 0.99 0 1.98 0 3 C-1.26607607 3.53229326 -2.53810412 4.05044544 -3.8125 4.5625 C-4.52019531 4.85253906 -5.22789062 5.14257812 -5.95703125 5.44140625 C-8 6 -8 6 -11 5 C-9.54462432 4.16151196 -8.08559627 3.32936066 -6.625 2.5 C-5.81289063 2.0359375 -5.00078125 1.571875 -4.1640625 1.09375 C-2 0 -2 0 0 0 Z " fill="#1949D8" transform="translate(437,233)"/>
<path d="M0 0 C-2.97 0 -5.94 0 -9 0 C-9 0.99 -9 1.98 -9 3 C-11.31 2.67 -13.62 2.34 -16 2 C-16 1.67 -16 1.34 -16 1 C-14.08833753 0.4409289 -12.17038424 -0.09666462 -10.25 -0.625 C-9.18265625 -0.92664062 -8.1153125 -1.22828125 -7.015625 -1.5390625 C-4 -2 -4 -2 0 0 Z " fill="#1B4BE5" transform="translate(716,1069)"/>
<path d="M0 0 C-1.75 5.75 -1.75 5.75 -4 8 C-4.66 5.69 -5.32 3.38 -6 1 C-4 0 -4 0 0 0 Z " fill="#1646E3" transform="translate(1049,841)"/>
<path d="M0 0 C0 0.66 0 1.32 0 2 C-1.24420647 2.5345256 -2.49570936 3.05208611 -3.75 3.5625 C-4.44609375 3.85253906 -5.1421875 4.14257812 -5.859375 4.44140625 C-8.30012784 5.07831803 -9.6403655 4.80248831 -12 4 C-10.56570999 3.32645501 -9.12742943 2.66140299 -7.6875 2 C-6.88699219 1.62875 -6.08648437 1.2575 -5.26171875 0.875 C-3 0 -3 0 0 0 Z " fill="#214CD7" transform="translate(477,577)"/>
<path d="M0 0 C1.65 0 3.3 0 5 0 C1.58983503 2.86453858 -1.90694544 4.34703566 -6 6 C-5.67 4.68 -5.34 3.36 -5 2 C-3.35 2 -1.7 2 0 2 C0 1.34 0 0.68 0 0 Z " fill="#1C49D6" transform="translate(512,513)"/>
<path d="M0 0 C1 2 1 2 0.22265625 4.3828125 C-0.16019531 5.28773438 -0.54304687 6.19265625 -0.9375 7.125 C-1.31777344 8.03507812 -1.69804687 8.94515625 -2.08984375 9.8828125 C-2.39019531 10.58148438 -2.69054687 11.28015625 -3 12 C-3.66 11.34 -4.32 10.68 -5 10 C-4.33333333 8 -3.66666667 6 -3 4 C-2.34 4 -1.68 4 -1 4 C-0.67 2.68 -0.34 1.36 0 0 Z " fill="#204AD9" transform="translate(240,472)"/>
<path d="M0 0 C0.66 0.33 1.32 0.66 2 1 C-1.17320782 4.53586014 -3.16743695 6.58578031 -8 7 C-5.4837822 4.39391727 -2.94865641 2.10618315 0 0 Z " fill="#ECFCFF" transform="translate(906,1010)"/>
<path d="M0 0 C0.66 0.33 1.32 0.66 2 1 C2 1.99 2 2.98 2 4 C-2.455 5.485 -2.455 5.485 -7 7 C-4.66666667 4.66666667 -2.33333333 2.33333333 0 0 Z " fill="#1E4DDE" transform="translate(913,976)"/>
<path d="M0 0 C1.98 1.65 3.96 3.3 6 5 C4.02 5.99 4.02 5.99 2 7 C1.01 6.34 0.02 5.68 -1 5 C-0.67 3.35 -0.34 1.7 0 0 Z " fill="#1446E4" transform="translate(338,951)"/>
<path d="M0 0 C0.66 0 1.32 0 2 0 C3.31223496 3.93670488 2.24296256 6.12488144 1 10 C-1 8 -1 8 -1.1875 5 C-1 2 -1 2 0 0 Z " fill="#1849E3" transform="translate(306,738)"/>
<path d="M0 0 C2.97 0.495 2.97 0.495 6 1 C3.3144406 3.6855594 0.62378672 4.06049974 -3 5 C-2.67 4.01 -2.34 3.02 -2 2 C-1.34 2 -0.68 2 0 2 C0 1.34 0 0.68 0 0 Z " fill="#1948DD" transform="translate(381,572)"/>
<path d="M0 0 C1.18414294 3.55242882 0.69535532 4.69830562 -0.4375 8.1875 C-0.72496094 9.08855469 -1.01242187 9.98960937 -1.30859375 10.91796875 C-1.53675781 11.60503906 -1.76492188 12.29210937 -2 13 C-2.33 13 -2.66 13 -3 13 C-3.31563182 7.73946963 -2.66590937 4.55426184 0 0 Z " fill="#204AD2" transform="translate(626,536)"/>
<path d="M0 0 C0.66 0 1.32 0 2 0 C2.86916887 1.40751221 3.71985149 2.8264521 4.5625 4.25 C5.03816406 5.03890625 5.51382812 5.8278125 6.00390625 6.640625 C7 9 7 9 6 13 C4.02 8.71 2.04 4.42 0 0 Z " fill="#D7E9FE" transform="translate(1044,429)"/>
<path d="M0 0 C0.6875 1.75 0.6875 1.75 1 4 C-0.4375 6.25 -0.4375 6.25 -2 8 C-3.98 4.535 -3.98 4.535 -6 1 C-5.34 1 -4.68 1 -4 1 C-4 1.66 -4 2.32 -4 3 C-2.68 2.67 -1.36 2.34 0 2 C0 1.34 0 0.68 0 0 Z " fill="#1548E2" transform="translate(998,386)"/>
<path d="M0 0 C3.53600465 1.91135386 5.78972846 3.62642766 8 7 C5.69 6.34 3.38 5.68 1 5 C0.67 3.35 0.34 1.7 0 0 Z " fill="#1C48DC" transform="translate(939,297)"/>
<path d="M0 0 C0 0.66 0 1.32 0 2 C-0.99 2 -1.98 2 -3 2 C-3 2.66 -3 3.32 -3 4 C-6 6 -6 6 -8.1875 5.625 C-8.785625 5.41875 -9.38375 5.2125 -10 5 C-8.71186658 4.16121545 -7.41936744 3.32913217 -6.125 2.5 C-5.40570312 2.0359375 -4.68640625 1.571875 -3.9453125 1.09375 C-2 0 -2 0 0 0 Z " fill="#1E47D8" transform="translate(869,1009)"/>
<path d="M0 0 C1.98 0 3.96 0 6 0 C6.66 1.98 7.32 3.96 8 6 C4.63408134 4.55746343 2.48952921 2.66735273 0 0 Z " fill="#1E49DF" transform="translate(368,1005)"/>
<path d="M0 0 C1.32 0.33 2.64 0.66 4 1 C3.19152271 2.16945792 2.37810888 3.33550461 1.5625 4.5 C1.11003906 5.1496875 0.65757812 5.799375 0.19140625 6.46875 C-0.20175781 6.9740625 -0.59492187 7.479375 -1 8 C-1.33 8 -1.66 8 -2 8 C-2.20086443 4.28400809 -2.1519437 3.22791555 0 0 Z " fill="#1B48DA" transform="translate(1023,882)"/>
<path d="M0 0 C0.66 0.33 1.32 0.66 2 1 C-0.31 4.3 -2.62 7.6 -5 11 C-5.33 10.34 -5.66 9.68 -6 9 C-4.29864224 5.76742026 -2.23960447 2.87949147 0 0 Z " fill="#EAFCFF" transform="translate(1005,871)"/>
<path d="M0 0 C1.98 0 3.96 0 6 0 C6 0.66 6 1.32 6 2 C7.65 2.33 9.3 2.66 11 3 C11 3.33 11 3.66 11 4 C6.44262737 3.56179109 3.42346555 3.14958831 0 0 Z " fill="#2049D9" transform="translate(320,763)"/>
<path d="M0 0 C0.33 0 0.66 0 1 0 C1.28571429 7.42857143 1.28571429 7.42857143 -1 11 C-1.66 11 -2.32 11 -3 11 C-2.01 7.37 -1.02 3.74 0 0 Z " fill="#E6F5FF" transform="translate(648,465)"/>
<path d="M0 0 C0.66 0 1.32 0 2 0 C1.01 2.97 0.02 5.94 -1 9 C-1.33 9 -1.66 9 -2 9 C-2.33 7.02 -2.66 5.04 -3 3 C-2.01 2.67 -1.02 2.34 0 2 C0 1.34 0 0.68 0 0 Z " fill="#1B48DD" transform="translate(245,458)"/>
<path d="M0 0 C0.33 0.66 0.66 1.32 1 2 C0.22265625 3.9453125 0.22265625 3.9453125 -0.9375 6.125 C-1.31777344 6.84945313 -1.69804687 7.57390625 -2.08984375 8.3203125 C-2.39019531 8.87460937 -2.69054687 9.42890625 -3 10 C-3.33 10 -3.66 10 -4 10 C-4 8.02 -4 6.04 -4 4 C-3.34 4 -2.68 4 -2 4 C-2 3.01 -2 2.02 -2 1 C-1.34 0.67 -0.68 0.34 0 0 Z " fill="#1A45D8" transform="translate(257,436)"/>
<path d="M0 0 C0.66 0.33 1.32 0.66 2 1 C-0.31 3.64 -2.62 6.28 -5 9 C-5.33 8.34 -5.66 7.68 -6 7 C-4.71937515 5.2925002 -3.38232443 3.62626404 -2 2 C-1.34 2 -0.68 2 0 2 C0 1.34 0 0.68 0 0 Z " fill="#E6F8FE" transform="translate(304,330)"/>
<path d="M0 0 C2.97 0 5.94 0 9 0 C5.99559979 2.00293347 4.29006055 2.49271626 0.8125 3.125 C-0.53908203 3.37636719 -0.53908203 3.37636719 -1.91796875 3.6328125 C-2.60503906 3.75398438 -3.29210937 3.87515625 -4 4 C-2.68 3.34 -1.36 2.68 0 2 C0 1.34 0 0.68 0 0 Z " fill="#EAFAFF" transform="translate(765,1052)"/>
<path d="M0 0 C-2.62198774 2.15377564 -4.64404172 3.40072174 -8 4 C-8.33 3.01 -8.66 2.02 -9 1 C-5.92677456 0.08941469 -3.19902639 -0.08886184 0 0 Z " fill="#1545DA" transform="translate(841,1049)"/>
<path d="M0 0 C1.32 0 2.64 0 4 0 C4.309375 0.94875 4.61875 1.8975 4.9375 2.875 C5.87394742 5.86080408 5.87394742 5.86080408 7 8 C3.64379729 6.61122646 1.92701272 5.08322035 0 2 C0 1.34 0 0.68 0 0 Z " fill="#1C45D7" transform="translate(309,752)"/>
<path d="M0 0 C2.31 0.33 4.62 0.66 7 1 C4.37801226 3.15377564 2.35595828 4.40072174 -1 5 C-0.67 3.35 -0.34 1.7 0 0 Z " fill="#1B4DE2" transform="translate(493,520)"/>
<path d="M0 0 C0.33 0.66 0.66 1.32 1 2 C0.22265625 3.7265625 0.22265625 3.7265625 -0.9375 5.625 C-1.618125 6.73875 -2.29875 7.8525 -3 9 C-3.66 7.68 -4.32 6.36 -5 5 C-3.35 3.35 -1.7 1.7 0 0 Z " fill="#1D4ADB" transform="translate(262,427)"/>
<path d="M0 0 C2.03833424 1.2739589 4.03852126 2.61061923 6 4 C6 4.66 6 5.32 6 6 C4.35 5.67 2.7 5.34 1 5 C0.67 3.35 0.34 1.7 0 0 Z " fill="#1A47E9" transform="translate(1002,366)"/>
<path d="M0 0 C1.32 0 2.64 0 4 0 C4 0.66 4 1.32 4 2 C4.99 1.67 5.98 1.34 7 1 C7.33 1.66 7.66 2.32 8 3 C7.01 3.495 7.01 3.495 6 4 C5.67 4.66 5.34 5.32 5 6 C3.35 4.02 1.7 2.04 0 0 Z " fill="#1845E0" transform="translate(944,331)"/>
<path d="M0 0 C4.75 1.875 4.75 1.875 7 3 C7.625 5.5625 7.625 5.5625 8 8 C6.85073734 7.04578192 5.70569459 6.08647955 4.5625 5.125 C3.92441406 4.59132813 3.28632812 4.05765625 2.62890625 3.5078125 C1 2 1 2 0 0 Z " fill="#1D46D8" transform="translate(927,315)"/>
<path d="M0 0 C0.66 0.33 1.32 0.66 2 1 C1.0479279 2.00596297 0.08812654 3.00461563 -0.875 4 C-1.40867187 4.556875 -1.94234375 5.11375 -2.4921875 5.6875 C-4 7 -4 7 -6 7 C-4.60667426 3.63279613 -3.0210714 2.0140476 0 0 Z " fill="#E7F8FE" transform="translate(337,298)"/>
<path d="M0 0 C0 0.66 0 1.32 0 2 C-2.30276574 4.21747812 -3.52480092 4.96760006 -6.75 5.1875 C-7.86375 5.0946875 -7.86375 5.0946875 -9 5 C-2.87096774 0 -2.87096774 0 0 0 Z " fill="#E7F8FF" transform="translate(431,262)"/>
<path d="M0 0 C2.475 0.99 2.475 0.99 5 2 C0.25 6 0.25 6 -2 6 C-1.34 4.02 -0.68 2.04 0 0 Z " fill="#1647E1" transform="translate(873,1027)"/>
<path d="M0 0 C0.66 0.33 1.32 0.66 2 1 C0.68 2.65 -0.64 4.3 -2 6 C-3.32 5.67 -4.64 5.34 -6 5 C-4.02 3.35 -2.04 1.7 0 0 Z " fill="#1B46D9" transform="translate(899,987)"/>
<path d="M0 0 C5.875 3.75 5.875 3.75 7 6 C5.68 6.33 4.36 6.66 3 7 C2.67 6.01 2.34 5.02 2 4 C1.34 3.67 0.68 3.34 0 3 C0 2.01 0 1.02 0 0 Z " fill="#1546DE" transform="translate(360,971)"/>
<path d="M0 0 C1.98 1.65 3.96 3.3 6 5 C5.38125 5.144375 4.7625 5.28875 4.125 5.4375 C1.96741678 5.93152225 1.96741678 5.93152225 0 7 C0 4.69 0 2.38 0 0 Z " fill="#1747DF" transform="translate(332,945)"/>
<path d="M0 0 C1.98 0 3.96 0 6 0 C5.67 1.98 5.34 3.96 5 6 C3.31237149 4.3545622 1.6459651 2.68711423 0 1 C0 0.67 0 0.34 0 0 Z " fill="#184BE2" transform="translate(289,930)"/>
<path d="M0 0 C1.65 1.65 3.3 3.3 5 5 C4.67 5.66 4.34 6.32 4 7 C1.525 6.01 1.525 6.01 -1 5 C-0.67 3.35 -0.34 1.7 0 0 Z " fill="#1946DC" transform="translate(285,889)"/>
<path d="M0 0 C0.33 0.99 0.66 1.98 1 3 C0.34 3.66 -0.32 4.32 -1 5 C-2.98 4.01 -4.96 3.02 -7 2 C-4.35261084 0.5393715 -3.10551666 0 0 0 Z " fill="#1245E6" transform="translate(526,674)"/>
<path d="M0 0 C0.99 0.33 1.98 0.66 3 1 C2.01 1.495 2.01 1.495 1 2 C1 2.99 1 3.98 1 5 C-1.97 4.505 -1.97 4.505 -5 4 C-4.0409375 3.8453125 -4.0409375 3.8453125 -3.0625 3.6875 C-2.381875 3.460625 -1.70125 3.23375 -1 3 C-0.67 2.01 -0.34 1.02 0 0 Z " fill="#1045E6" transform="translate(491,658)"/>
<path d="M0 0 C0.66 0 1.32 0 2 0 C2 0.99 2 1.98 2 3 C2.66 3 3.32 3 4 3 C4 5.31 4 7.62 4 10 C1.81024227 6.71536341 1.00193437 3.79303725 0 0 Z " fill="#1D48D8" transform="translate(1043,480)"/>
<path d="M0 0 C0.66 0.33 1.32 0.66 2 1 C1.67 1.66 1.34 2.32 1 3 C1.66 3.33 2.32 3.66 3 4 C0.125 4.625 0.125 4.625 -3 5 C-3.66 4.34 -4.32 3.68 -5 3 C-2.625 1.4375 -2.625 1.4375 0 0 Z " fill="#1147DC" transform="translate(323,467)"/>
<path d="M0 0 C0.33 0 0.66 0 1 0 C1 1.98 1 3.96 1 6 C0.34 6 -0.32 6 -1 6 C-1 6.99 -1 7.98 -1 9 C-1.66 9 -2.32 9 -3 9 C-2.44271087 5.65626525 -1.64826111 2.96687001 0 0 Z " fill="#204CD8" transform="translate(230,441)"/>
<path d="M0 0 C0.66 0 1.32 0 2 0 C1.67 1.32 1.34 2.64 1 4 C-1.31 4.66 -3.62 5.32 -6 6 C-4 4 -2 2 0 0 Z " fill="#1A45DA" transform="translate(370,273)"/>
<path d="M0 0 C2.31 0 4.62 0 7 0 C7.33 1.32 7.66 2.64 8 4 C4.31245243 3.50168276 2.39509338 2.89932357 0 0 Z " fill="#1C4CE7" transform="translate(869,272)"/>
<path d="M0 0 C0.66 0.66 1.32 1.32 2 2 C4.06874034 2.6425235 4.06874034 2.6425235 6 3 C2.25 6 2.25 6 0 6 C0 4.02 0 2.04 0 0 Z " fill="#1846DD" transform="translate(884,1019)"/>
<path d="M0 0 C0.66 0.33 1.32 0.66 2 1 C0.87926138 1.83905565 -0.24674547 2.67107831 -1.375 3.5 C-2.00148438 3.9640625 -2.62796875 4.428125 -3.2734375 4.90625 C-5 6 -5 6 -7 6 C-7 5.34 -7 4.68 -7 4 C-1.7265625 0.77734375 -1.7265625 0.77734375 0 0 Z " fill="#ECFDFF" transform="translate(880,999)"/>
<path d="M0 0 C2.97 0.99 5.94 1.98 9 3 C5.8035914 4.06546953 3.34252724 4.07427838 0 4 C0 2.68 0 1.36 0 0 Z " fill="#1948D8" transform="translate(488,706)"/>
<path d="M0 0 C0.66 0.33 1.32 0.66 2 1 C-1.79692186 3.82561627 -4.18569279 5.56638908 -9 5 C-6.06626269 3.04417512 -3.21783702 1.43775696 0 0 Z " fill="#E6F6FE" transform="translate(391,571)"/>
<path d="M0 0 C1.98 1.65 3.96 3.3 6 5 C3.33333333 5 0.66666667 5 -2 5 C-1.34 3.35 -0.68 1.7 0 0 Z " fill="#1946E0" transform="translate(973,330)"/>
<path d="M0 0 C1.2065625 0.0309375 1.2065625 0.0309375 2.4375 0.0625 C0.7875 1.7125 -0.8625 3.3625 -2.5625 5.0625 C-3.125 3.125 -3.125 3.125 -3.5625 1.0625 C-2.5625 0.0625 -2.5625 0.0625 0 0 Z " fill="#1945E1" transform="translate(333.5625,331.9375)"/>
<path d="M0 0 C4.8 2.46153846 4.8 2.46153846 5.8125 5.1875 C5.874375 5.785625 5.93625 6.38375 6 7 C4.68 6.67 3.36 6.34 2 6 C2 5.01 2 4.02 2 3 C1.34 2.67 0.68 2.34 0 2 C0 1.34 0 0.68 0 0 Z " fill="#184CDF" transform="translate(950,307)"/>
<path d="M0 0 C3.91402949 1.26941497 5.79072873 2.51167694 8 6 C7.67 6.66 7.34 7.32 7 8 C5.83035398 6.8572081 4.66435444 5.71068285 3.5 4.5625 C2.8503125 3.92441406 2.200625 3.28632813 1.53125 2.62890625 C0 1 0 1 0 0 Z " fill="#E5F9FF" transform="translate(943,299)"/>
<path d="M0 0 C0.66 0 1.32 0 2 0 C2.33 2.31 2.66 4.62 3 7 C1.68 6.34 0.36 5.68 -1 5 C-0.67 3.35 -0.34 1.7 0 0 Z " fill="#1246E9" transform="translate(908,295)"/>
<path d="M0 0 C0.66 0.33 1.32 0.66 2 1 C0.25 3.0625 0.25 3.0625 -2 5 C-4.25 4.75 -4.25 4.75 -6 4 C-4.02 2.68 -2.04 1.36 0 0 Z " fill="#1747D9" transform="translate(406,249)"/>
</svg>
